<svg width="1440" height="267" viewBox="0 0 1440 267" fill="none" xmlns="http://www.w3.org/2000/svg">
<mask id="mask0_132_182" style="mask-type:alpha" maskUnits="userSpaceOnUse" x="0" y="0" width="1440" height="267">
<rect y="0.559021" width="1440" height="265.52" fill="url(#paint0_linear_132_182)"/>
</mask>
<g mask="url(#mask0_132_182)">
<path d="M408.96 -109.398H420V-109.881H408.09L402.99 -101.329L397.88 -92.777H377.47L367.26 -109.881H345.11L337.65 -97.382L334.9 -92.777H314.48L304.28 -109.881H282.13L271.92 -92.777H251.5L241.29 -109.881H219.14L208.94 -92.777H188.52L178.31 -109.881H156.16L148.7 -97.382L145.95 -92.777H125.54L115.33 -109.881H93.18L82.97 -92.777H62.56L52.35 -109.881H30.2L25.09 -101.329L19.99 -92.777H-0.429993L-10.63 -109.881H-32.78L-35.54 -105.276L-42.99 -92.777H-63.41L-73.62 -109.881H-95.77L-105.98 -92.777H-126.39L-136.6 -109.881H-158.75L-163.85 -101.329L-168.96 -92.777H-180V-91.8095H-168.96L-163.85 -83.2573L-158.75 -74.7051L-163.85 -66.1528L-168.96 -57.5909H-180V-56.6235H-168.96L-163.85 -48.0712L-158.75 -39.519L-163.85 -30.9668L-168.96 -22.4145H-180V-21.4471H-168.96L-163.85 -12.8948L-158.75 -4.34261L-163.85 4.20963L-168.96 12.7619H-180V13.7293H-168.96L-163.85 22.2815L-158.75 30.8338L-163.85 39.3957L-168.96 47.9479H-180V48.9154H-168.96L-163.85 57.4676L-158.75 66.0198L-163.85 74.5721L-168.96 83.1243H-180V84.0918H-168.96L-163.85 92.644L-158.75 101.196L-163.85 109.748L-168.96 118.301H-180V119.268H-168.96L-163.85 127.82L-158.75 136.382L-163.85 144.935L-168.96 153.487H-180V154.454H-168.96L-163.85 163.006L-158.75 171.559L-163.85 180.111L-168.96 188.663H-180V189.631H-168.96L-163.85 198.183L-158.75 206.735L-163.85 215.287L-168.96 223.84H-180V224.807H-168.96L-163.85 233.369L-158.75 241.921L-163.85 250.473L-168.96 259.026H-180V259.993H-168.96L-163.85 268.545L-158.75 277.098H-136.6L-126.39 259.993H-105.98L-99.17 271.399L-95.77 277.098H-73.62L-63.41 259.993H-42.99L-35.54 272.492L-32.78 277.098H-10.63L-0.429993 259.993H19.99L25.09 268.545L30.2 277.098H52.35L62.56 259.993H82.97L89.78 271.399L93.18 277.098H115.33L125.54 259.993H145.95L148.7 264.598L156.16 277.098H178.31L188.52 259.993H208.94L219.14 277.098H241.29L251.5 259.993H271.92L278.72 271.399L282.13 277.098H304.28L314.48 259.993H334.9L337.65 264.598L345.11 277.098H367.26L377.47 259.993H397.88L402.99 268.545L408.09 277.098H420V276.614H408.96L403.85 268.062L398.75 259.509L403.85 250.957L408.96 242.405H420V241.437H408.96L403.85 232.885L398.75 224.323L403.85 215.771L408.96 207.219H420V206.251H408.96L403.85 197.699L398.75 189.147L403.85 180.595L408.96 172.042H420V171.075H408.96L403.85 162.523L398.75 153.97L403.85 145.418L408.96 136.866H420V135.899H408.96L403.85 127.337L398.75 118.784L403.85 110.232L408.96 101.68H420V100.712H408.96L403.85 92.1603L398.75 83.608L403.85 75.0558L408.96 66.5036H420V65.5361H408.96L403.85 56.9839L398.75 48.4316L403.85 39.8794L408.96 31.3175H420V30.3501H408.96L403.85 21.7978L398.75 13.2456L403.85 4.69335L408.96 -3.85889H420V-4.82634H408.96L403.85 -13.3786L398.75 -21.9308L403.85 -30.483L408.96 -39.0353H420V-40.0027H408.96L403.85 -48.555L398.75 -57.1072L403.85 -65.6691L408.96 -74.2213H420V-75.1888H408.96L403.85 -83.741L398.75 -92.2932L403.85 -100.845L408.96 -109.398ZM345.98 -109.398H366.39L376.6 -92.2932L366.39 -75.1888H345.98L335.77 -92.2932L345.98 -109.398ZM220.01 65.5361L209.8 48.4316L220.01 31.3175H240.43L250.64 48.4316L240.43 65.5361H220.01ZM250.64 83.608L240.43 100.712H220.01L209.8 83.608L220.01 66.5036H240.43L250.64 83.608ZM219.14 66.0198L208.94 83.1243H188.52L178.31 66.0198L188.52 48.9154H208.94L219.14 66.0198ZM187.65 83.608L177.44 100.712H157.03L150.22 89.3063L146.82 83.608L157.03 66.5036H177.44L187.65 83.608ZM177.44 65.5361H157.03L146.82 48.4316L157.03 31.3175H177.44L187.65 48.4316L177.44 65.5361ZM148.69 53.4914L156.16 66.0198L148.7 78.5193L145.95 83.1243H125.54L115.33 66.0198L125.54 48.9154H145.95L148.69 53.4914ZM124.67 83.608L114.46 100.712H94.05L91.3 96.1075L83.84 83.608L91.3 71.1086L94.05 66.5036H114.46L124.67 83.608ZM114.46 65.5361H94.05L91.31 60.9504L83.84 48.4316L91.3 35.9322L94.05 31.3175H114.46L124.67 48.4316L114.46 65.5361ZM93.18 66.0198L82.97 83.1243H62.56L52.35 66.0198L62.56 48.9154H82.97L93.18 66.0198ZM61.69 83.608L51.48 100.712H31.06L25.96 92.1603L20.86 83.608L25.96 75.0558L31.06 66.5036H51.48L61.69 83.608ZM51.48 65.5361H31.06L25.96 56.9839L20.86 48.4316L25.96 39.8794L31.06 31.3175H51.48L61.69 48.4316L51.48 65.5361ZM25.09 57.4676L30.2 66.0198L25.09 74.5721L19.99 83.1243H-0.429993L-10.63 66.0198L-0.429993 48.9154H19.99L25.09 57.4676ZM-11.5 65.5361H-31.92L-42.13 48.4316L-31.92 31.3175H-11.5L-1.28999 48.4316L-11.5 65.5361ZM-11.5 66.5036L-1.28999 83.608L-11.5 100.712H-31.92L-42.13 83.608L-31.92 66.5036H-11.5ZM-11.5 101.68L-1.28999 118.784L-11.5 135.899H-31.92L-42.13 118.784L-31.92 101.68H-11.5ZM-10.63 101.196L-0.429993 84.0918H19.99L25.09 92.644L30.2 101.196L25.09 109.748L19.99 118.301H-0.429993L-10.63 101.196ZM25.96 110.232L31.06 101.68H51.48L61.69 118.784L51.48 135.899H31.06L25.96 127.337L20.86 118.784L25.96 110.232ZM52.35 101.196L62.56 84.0918H82.97L89.78 95.498L93.18 101.196L82.97 118.301H62.56L52.35 101.196ZM91.3 106.295L94.05 101.68H114.46L124.67 118.784L114.46 135.899H94.05L91.33 131.342L83.84 118.784L91.3 106.295ZM115.33 101.196L125.54 84.0918H145.95L148.7 88.6968L156.16 101.196L148.7 113.696L145.95 118.301H125.54L115.33 101.196ZM157.03 101.68H177.44L187.65 118.784L177.44 135.899H157.03L146.82 118.784L157.03 101.68ZM178.31 101.196L188.52 84.0918H208.94L219.14 101.196L208.94 118.301H188.52L178.31 101.196ZM220.01 101.68H240.43L250.64 118.784L240.43 135.899H220.01L209.8 118.784L220.01 101.68ZM241.29 101.196L251.5 84.0918H271.92L278.72 95.498L282.13 101.196L271.92 118.301H251.5L241.29 101.196ZM251.5 83.1243L241.29 66.0198L251.5 48.9154H271.92L282.13 66.0198L271.92 83.1243H251.5ZM251.5 47.9479L241.29 30.8435L251.5 13.7293H271.92L278.72 25.1355L282.13 30.8338L271.92 47.9479H251.5ZM240.43 30.3501H220.01L209.8 13.2456L220.01 -3.85889H240.43L250.64 13.2456L240.43 30.3501ZM219.14 30.8338L208.94 47.9479H188.52L178.31 30.8338L188.52 13.7293H208.94L219.14 30.8338ZM177.44 30.3501H157.03L150.22 18.9535L146.82 13.2456L157.03 -3.85889H177.44L187.65 13.2456L177.44 30.3501ZM148.7 18.344L156.16 30.8338L148.7 43.3332L145.95 47.9479H125.54L115.33 30.8338L125.54 13.7293H145.95L148.7 18.344ZM114.46 30.3501H94.05L91.3 25.745L83.84 13.2456L91.31 0.726814L94.05 -3.85889H114.46L124.67 13.2456L114.46 30.3501ZM89.78 25.1355L93.18 30.8338L82.97 47.9479H62.56L52.35 30.8435L62.56 13.7293H82.97L89.78 25.1355ZM51.48 30.3501H31.06L25.96 21.7978L20.86 13.2456L25.96 4.69335L31.06 -3.85889H51.48L61.69 13.2456L51.48 30.3501ZM25.09 22.2815L30.2 30.8338L25.09 39.3957L19.99 47.9479H-0.429993L-10.63 30.8338L-0.429993 13.7293H19.99L25.09 22.2815ZM-11.5 30.3501H-31.92L-42.13 13.2456L-31.92 -3.85889H-11.5L-1.28999 13.2456L-11.5 30.3501ZM-35.54 26.2287L-32.78 30.8338L-35.54 35.4485L-42.99 47.9479H-63.41L-73.62 30.8338L-63.41 13.7293H-42.99L-35.54 26.2287ZM-42.99 48.9154L-35.52 61.4341L-32.78 66.0198L-35.54 70.6249L-42.99 83.1243H-63.41L-73.62 66.0198L-63.41 48.9154H-42.99ZM-42.99 84.0918L-35.54 96.5912L-32.78 101.196L-35.54 105.811L-42.99 118.301H-63.41L-73.62 101.196L-63.41 84.0918H-42.99ZM-42.99 119.268L-35.5 131.826L-32.78 136.382L-35.54 140.987L-42.99 153.487H-63.41L-73.62 136.382L-63.41 119.268H-42.99ZM-31.92 136.866H-11.5L-1.28999 153.97L-11.5 171.075H-31.92L-42.13 153.97L-31.92 136.866ZM-10.63 136.382L-0.429993 119.268H19.99L25.09 127.82L30.2 136.382L25.09 144.935L19.99 153.487H-0.429993L-10.63 136.382ZM25.96 145.418L31.06 136.866H51.48L61.69 153.97L51.48 171.075H31.06L25.96 162.523L20.86 153.97L25.96 145.418ZM52.35 136.382L62.56 119.268H82.97L93.18 136.382L82.97 153.487H62.56L52.35 136.382ZM91.3 141.471L94.05 136.866H114.46L124.67 153.97L114.46 171.075H94.05L91.3 166.47L83.84 153.97L91.3 141.471ZM115.33 136.382L125.54 119.268H145.95L148.67 123.825L156.16 136.382L148.7 148.872L145.95 153.487H125.54L115.33 136.382ZM157.03 136.866H177.44L187.65 153.97L177.44 171.075H157.03L150.22 159.669L146.82 153.97L157.03 136.866ZM178.31 136.382L188.52 119.268H208.94L219.14 136.382L208.94 153.487H188.52L178.31 136.382ZM220.01 136.866H240.43L250.64 153.97L240.43 171.075H220.01L209.8 153.97L220.01 136.866ZM241.29 136.382L251.5 119.268H271.92L282.13 136.382L271.92 153.487H251.5L241.29 136.382ZM280.24 141.471L282.99 136.866H303.41L313.62 153.97L303.41 171.075H282.99L280.24 166.47L272.79 153.97L280.24 141.471ZM282.99 135.899L280.28 131.342L272.79 118.784L280.24 106.295L282.99 101.68H303.41L313.62 118.784L303.41 135.899H282.99ZM282.99 100.712L280.24 96.1075L272.79 83.608L280.24 71.1086L282.99 66.5036H303.41L313.62 83.608L303.41 100.712H282.99ZM282.99 65.5361L280.26 60.9504L272.79 48.4316L280.24 35.9322L282.99 31.3175H303.41L313.62 48.4316L303.41 65.5361H282.99ZM282.99 30.3501L280.24 25.745L272.79 13.2456L280.26 0.726814L282.99 -3.85889H303.41L313.62 13.2456L303.41 30.3501H282.99ZM282.99 -4.82634L280.24 -9.43138L272.79 -21.9308L280.26 -34.4592L282.99 -39.0353H303.41L313.62 -21.9308L303.41 -4.82634H282.99ZM278.72 -10.0409L282.13 -4.34261L271.92 12.7619H251.5L241.29 -4.34261L251.5 -21.4471H271.92L278.72 -10.0409ZM240.43 -4.82634H220.01L209.8 -21.9308L220.01 -39.0353H240.43L250.64 -21.9308L240.43 -4.82634ZM219.14 -4.34261L208.94 12.7619H188.52L178.31 -4.34261L188.52 -21.4471H208.94L219.14 -4.34261ZM177.44 -4.82634H157.03L150.22 -16.2325L146.82 -21.9308L157.03 -39.0353H177.44L187.65 -21.9308L177.44 -4.82634ZM148.7 -16.842L156.16 -4.34261L148.69 8.18584L145.95 12.7619H125.54L115.33 -4.34261L125.54 -21.4471H145.95L148.7 -16.842ZM114.46 -4.82634H94.05L91.3 -9.43138L83.84 -21.9308L91.31 -34.4592L94.05 -39.0353H114.46L124.67 -21.9308L114.46 -4.82634ZM89.78 -10.0409L93.18 -4.34261L82.97 12.7619H62.56L52.35 -4.34261L62.56 -21.4471H82.97L89.78 -10.0409ZM51.48 -4.82634H31.06L25.96 -13.3786L20.86 -21.9308L25.96 -30.483L31.06 -39.0353H51.48L61.69 -21.9308L51.48 -4.82634ZM25.09 -12.8948L30.2 -4.34261L25.09 4.20963L19.99 12.7619H-0.429993L-10.63 -4.34261L-0.429993 -21.4471H19.99L25.09 -12.8948ZM-11.5 -4.82634H-31.92L-42.13 -21.9308L-31.92 -39.0353H-11.5L-1.28999 -21.9308L-11.5 -4.82634ZM-35.54 -8.94765L-32.78 -4.34261L-35.52 0.243095L-42.99 12.7619H-63.41L-73.62 -4.34261L-63.41 -21.4471H-42.99L-35.54 -8.94765ZM-74.48 -4.82634H-94.9L-97.65 -9.43138L-105.11 -21.9308L-97.63 -34.4592L-94.9 -39.0353H-74.48L-64.28 -21.9308L-74.48 -4.82634ZM-74.48 -3.85889L-64.28 13.2456L-74.48 30.3501H-94.9L-97.65 25.745L-105.11 13.2456L-97.63 0.726814L-94.9 -3.85889H-74.48ZM-74.48 31.3175L-64.28 48.4316L-74.48 65.5361H-94.9L-97.63 60.9504L-105.11 48.4316L-97.65 35.9322L-94.9 31.3175H-74.48ZM-74.48 66.5036L-64.28 83.608L-74.48 100.712H-94.9L-97.65 96.1075L-105.11 83.608L-97.65 71.1086L-94.9 66.5036H-74.48ZM-74.48 101.68L-64.28 118.784L-74.48 135.899H-94.9L-97.62 131.342L-105.11 118.784L-97.65 106.295L-94.9 101.68H-74.48ZM-74.48 136.866L-64.28 153.97L-74.48 171.075H-94.9L-97.65 166.47L-105.11 153.97L-97.65 141.471L-94.9 136.866H-74.48ZM-74.48 172.042L-64.28 189.147L-74.48 206.251H-94.9L-97.65 201.646L-105.11 189.147L-97.65 176.647L-94.9 172.042H-74.48ZM-73.62 171.559L-63.41 154.454H-42.99L-35.54 166.954L-32.78 171.559L-35.54 176.164L-42.99 188.663H-63.41L-73.62 171.559ZM-31.92 172.042H-11.5L-1.28999 189.147L-11.5 206.251H-31.92L-42.13 189.147L-31.92 172.042ZM-10.63 171.559L-0.429993 154.454H19.99L25.09 163.006L30.2 171.559L25.09 180.111L19.99 188.663H-0.429993L-10.63 171.559ZM25.96 180.595L31.06 172.042H51.48L61.69 189.147L51.48 206.251H31.06L25.96 197.699L20.86 189.147L25.96 180.595ZM52.35 171.559L62.56 154.454H82.97L89.78 165.86L93.18 171.559L82.97 188.663H62.56L52.35 171.559ZM91.3 176.647L94.05 172.042H114.46L124.67 189.147L114.46 206.251H94.05L91.3 201.646L83.84 189.147L91.3 176.647ZM115.33 171.559L125.54 154.454H145.95L148.7 159.059L156.16 171.559L148.7 184.058L145.95 188.663H125.54L115.33 171.559ZM157.03 172.042H177.44L187.65 189.147L177.44 206.251H157.03L150.22 194.845L146.82 189.147L157.03 172.042ZM178.31 171.559L188.52 154.454H208.94L219.14 171.559L208.94 188.663H188.52L178.31 171.559ZM220.01 172.042H240.43L250.64 189.147L240.43 206.251H220.01L209.8 189.147L220.01 172.042ZM241.29 171.559L251.5 154.454H271.92L278.72 165.86L282.13 171.559L271.92 188.663H251.5L241.29 171.559ZM280.24 176.647L282.99 172.042H303.41L313.62 189.147L303.41 206.251H282.99L280.24 201.646L272.79 189.147L280.24 176.647ZM304.28 171.559L314.48 154.454H334.9L337.65 159.059L345.11 171.559L337.65 184.058L334.9 188.663H314.48L304.28 171.559ZM314.48 153.487L304.28 136.382L314.48 119.268H334.9L337.62 123.825L345.11 136.382L337.65 148.872L334.9 153.487H314.48ZM314.48 118.301L304.28 101.196L314.48 84.0918H334.9L337.65 88.6968L345.11 101.196L337.65 113.696L334.9 118.301H314.48ZM314.48 83.1243L304.28 66.0198L314.48 48.9154H334.9L337.63 53.4914L345.11 66.0198L337.65 78.5193L334.9 83.1243H314.48ZM314.48 47.9479L304.28 30.8338L314.48 13.7293H334.9L337.65 18.344L345.11 30.8338L337.65 43.3332L334.9 47.9479H314.48ZM314.48 12.7619L304.28 -4.34261L314.48 -21.4471H334.9L337.65 -16.842L345.11 -4.34261L337.63 8.18584L334.9 12.7619H314.48ZM314.48 -22.4145L304.28 -39.519L314.48 -56.6235H334.9L337.65 -52.0184L345.11 -39.519L337.63 -27.0002L334.9 -22.4145H314.48ZM303.41 -40.0027H282.99L280.24 -44.6174L272.79 -57.1072L280.24 -69.6066L282.99 -74.2213H303.41L313.62 -57.1072L303.41 -40.0027ZM278.72 -45.2269L282.13 -39.519L271.92 -22.4145H251.5L241.29 -39.519L251.5 -56.6235H271.92L278.72 -45.2269ZM240.43 -40.0027H220.01L209.8 -57.1072L220.01 -74.2213H240.43L250.64 -57.1072L240.43 -40.0027ZM219.14 -39.519L208.94 -22.4145H188.52L178.31 -39.519L188.52 -56.6235H208.94L219.14 -39.519ZM177.44 -40.0027H157.03L150.22 -51.4089L146.82 -57.1072L157.03 -74.2213H177.44L187.65 -57.1169L177.44 -40.0027ZM148.7 -52.0184L156.16 -39.519L148.69 -27.0002L145.95 -22.4145H125.54L115.33 -39.519L125.54 -56.6235H145.95L148.7 -52.0184ZM114.46 -40.0027H94.05L91.3 -44.6174L83.84 -57.1072L91.3 -69.6066L94.05 -74.2213H114.46L124.67 -57.1072L114.46 -40.0027ZM89.78 -45.2269L93.18 -39.519L82.97 -22.4145H62.56L52.35 -39.519L62.56 -56.6235H82.97L89.78 -45.2269ZM51.48 -40.0027H31.06L25.96 -48.555L20.86 -57.1072L25.96 -65.6691L31.06 -74.2213H51.48L61.69 -57.1072L51.48 -40.0027ZM25.09 -48.0712L30.2 -39.519L25.09 -30.9668L19.99 -22.4145H-0.429993L-10.63 -39.519L-0.429993 -56.6235H19.99L25.09 -48.0712ZM-11.5 -40.0027H-31.92L-42.13 -57.1072L-31.92 -74.2213H-11.5L-1.28999 -57.1072L-11.5 -40.0027ZM-35.54 -44.1337L-32.78 -39.519L-35.52 -34.943L-42.99 -22.4145H-63.41L-73.62 -39.519L-63.41 -56.6235H-42.99L-35.54 -44.1337ZM-74.48 -40.0027H-94.9L-97.65 -44.6174L-105.11 -57.1072L-97.65 -69.6066L-94.9 -74.2213H-74.48L-64.28 -57.1072L-74.48 -40.0027ZM-99.17 -45.2269L-95.77 -39.519L-105.98 -22.4145H-126.39L-136.6 -39.519L-126.39 -56.6235H-105.98L-99.17 -45.2269ZM-105.98 -21.4471L-99.17 -10.0409L-95.77 -4.34261L-105.98 12.7619H-126.39L-136.6 -4.34261L-126.39 -21.4471H-105.98ZM-105.98 13.7293L-99.17 25.1355L-95.77 30.8338L-105.98 47.9479H-126.39L-136.6 30.8338L-126.39 13.7293H-105.98ZM-105.98 48.9154L-95.77 66.0198L-105.98 83.1243H-126.39L-136.6 66.0198L-126.39 48.9154H-105.98ZM-105.98 84.0918L-99.17 95.498L-95.77 101.196L-105.98 118.301H-126.39L-136.6 101.196L-126.39 84.0918H-105.98ZM-105.98 119.268L-95.77 136.382L-105.98 153.487H-126.39L-136.6 136.382L-126.39 119.268H-105.98ZM-105.98 154.454L-99.17 165.86L-95.77 171.559L-105.98 188.663H-126.39L-136.6 171.559L-126.39 154.454H-105.98ZM-105.98 189.631L-99.17 201.037L-95.77 206.735L-105.98 223.84H-126.39L-136.6 206.735L-126.39 189.631H-105.98ZM-97.65 211.833L-94.9 207.219H-74.48L-64.28 224.323L-74.48 241.437H-94.9L-97.62 236.881L-105.11 224.323L-97.65 211.833ZM-73.62 206.735L-63.41 189.631H-42.99L-35.54 202.13L-32.78 206.735L-35.54 211.35L-42.99 223.84H-63.41L-73.62 206.735ZM-31.92 207.219H-11.5L-1.28999 224.323L-11.5 241.437H-31.92L-42.13 224.323L-31.92 207.219ZM-10.63 206.735L-0.429993 189.631H19.99L25.09 198.183L30.2 206.735L25.09 215.287L19.99 223.84H-0.429993L-10.63 206.735ZM25.96 215.771L31.06 207.219H51.48L61.69 224.323L51.48 241.437H31.06L25.96 232.885L20.86 224.323L25.96 215.771ZM52.35 206.735L62.56 189.631H82.97L89.78 201.037L93.18 206.735L82.97 223.84H62.56L52.35 206.735ZM91.3 211.833L94.05 207.219H114.46L124.67 224.323L114.46 241.437H94.05L91.33 236.881L83.84 224.323L91.3 211.833ZM115.33 206.735L125.54 189.631H145.95L148.7 194.236L156.16 206.735L148.7 219.234L145.95 223.84H125.54L115.33 206.735ZM157.03 207.219H177.44L187.65 224.323L177.44 241.437H157.03L146.82 224.323L157.03 207.219ZM178.31 206.735L188.52 189.631H208.94L219.14 206.735L208.94 223.84H188.52L178.31 206.735ZM220.01 207.219H240.43L250.64 224.323L240.43 241.437H220.01L209.8 224.323L220.01 207.219ZM241.29 206.735L251.5 189.631H271.92L278.72 201.037L282.13 206.735L271.92 223.84H251.5L241.29 206.735ZM280.24 211.833L282.99 207.219H303.41L313.62 224.323L303.41 241.437H282.99L280.28 236.881L272.79 224.323L280.24 211.833ZM304.28 206.735L314.48 189.631H334.9L337.65 194.236L345.11 206.735L337.65 219.234L334.9 223.84H314.48L304.28 206.735ZM345.98 207.219H366.39L376.6 224.323L366.39 241.437H345.98L335.77 224.323L345.98 207.219ZM345.98 206.251L339.17 194.845L335.77 189.147L345.98 172.042H366.39L376.6 189.147L366.39 206.251H345.98ZM345.98 171.075L339.17 159.669L335.77 153.97L345.98 136.866H366.39L376.6 153.97L366.39 171.075H345.98ZM345.98 135.899L335.77 118.784L345.98 101.68H366.39L376.6 118.784L366.39 135.899H345.98ZM345.98 100.712L339.17 89.3063L335.77 83.608L345.98 66.5036H366.39L376.6 83.608L366.39 100.712H345.98ZM345.98 65.5361L335.77 48.4316L345.98 31.3175H366.39L376.6 48.4316L366.39 65.5361H345.98ZM345.98 30.3501L339.17 18.9535L335.77 13.2456L345.98 -3.85889H366.39L376.6 13.2456L366.39 30.3501H345.98ZM345.98 -4.82634L339.17 -16.2325L335.77 -21.9308L345.98 -39.0353H366.39L376.6 -21.9308L366.39 -4.82634H345.98ZM345.98 -40.0027L339.17 -51.4089L335.77 -57.1072L345.98 -74.2213H366.39L376.6 -57.1072L366.39 -40.0027H345.98ZM334.9 -91.8095L337.63 -87.2238L345.11 -74.7051L337.65 -62.2056L334.9 -57.5909H314.48L304.28 -74.7051L314.48 -91.8095H334.9ZM280.24 -104.793L282.99 -109.398H303.41L313.62 -92.2932L303.41 -75.1888H282.99L280.26 -79.7648L272.79 -92.2932L280.24 -104.793ZM271.92 -91.8095L282.13 -74.7051L271.92 -57.5909H251.5L241.29 -74.7051L251.5 -91.8095H271.92ZM220.01 -109.398H240.43L250.64 -92.2932L240.43 -75.1888H220.01L209.8 -92.2932L220.01 -109.398ZM208.94 -91.8095L219.14 -74.7051L208.94 -57.5909H188.52L178.31 -74.7051L188.52 -91.8095H208.94ZM157.03 -109.398H177.44L187.65 -92.2932L177.44 -75.1888H157.03L146.82 -92.2932L157.03 -109.398ZM145.95 -91.8095L148.69 -87.2238L156.16 -74.7051L148.7 -62.2056L145.95 -57.5909H125.54L115.33 -74.7051L125.54 -91.8095H145.95ZM91.3 -104.793L94.05 -109.398H114.46L124.67 -92.2932L114.46 -75.1888H94.05L91.31 -79.7648L83.84 -92.2932L91.3 -104.793ZM82.97 -91.8095L93.18 -74.7051L82.97 -57.5909H62.56L52.35 -74.7051L62.56 -91.8095H82.97ZM25.96 -100.845L31.06 -109.398H51.48L61.69 -92.2932L51.48 -75.1888H31.06L25.96 -83.741L20.86 -92.2932L25.96 -100.845ZM19.99 -91.8095L25.09 -83.2573L30.2 -74.7051L25.09 -66.1528L19.99 -57.5909H-0.429993L-10.63 -74.7051L-0.429993 -91.8095H19.99ZM-31.92 -109.398H-11.5L-1.28999 -92.2932L-11.5 -75.1888H-31.92L-42.13 -92.2932L-31.92 -109.398ZM-42.99 -91.8095L-35.52 -79.2811L-32.78 -74.7051L-35.54 -70.0903L-42.99 -57.5909H-63.41L-73.62 -74.7051L-63.41 -91.8095H-42.99ZM-97.65 -104.793L-94.9 -109.398H-74.48L-64.28 -92.2932L-74.48 -75.1888H-94.9L-97.63 -79.7648L-105.11 -92.2932L-97.65 -104.793ZM-105.98 -91.8095L-95.77 -74.7051L-105.98 -57.5909H-126.39L-136.6 -74.7051L-126.39 -91.8095H-105.98ZM-162.99 -83.741L-168.09 -92.2932L-162.99 -100.845L-157.88 -109.398H-137.47L-127.26 -92.2932L-137.47 -75.1888H-157.88L-162.99 -83.741ZM-162.99 -48.555L-168.09 -57.1072L-162.99 -65.6691L-157.88 -74.2213H-137.47L-127.26 -57.1072L-137.47 -40.0027H-157.88L-162.99 -48.555ZM-162.99 -13.3786L-168.09 -21.9308L-162.99 -30.483L-157.88 -39.0353H-137.47L-127.26 -21.9308L-137.47 -4.82634H-157.88L-162.99 -13.3786ZM-162.99 21.7978L-168.09 13.2456L-162.99 4.69335L-157.88 -3.85889H-137.47L-127.26 13.2456L-137.47 30.3501H-157.88L-162.99 21.7978ZM-162.99 56.9839L-168.09 48.4316L-162.99 39.8794L-157.88 31.3175H-137.47L-127.26 48.4316L-137.47 65.5361H-157.88L-162.99 56.9839ZM-162.99 92.1603L-168.09 83.608L-162.99 75.0558L-157.88 66.5036H-137.47L-127.26 83.608L-137.47 100.712H-157.88L-162.99 92.1603ZM-162.99 127.337L-168.09 118.784L-162.99 110.232L-157.88 101.68H-137.47L-127.26 118.784L-137.47 135.899H-157.88L-162.99 127.337ZM-162.99 162.523L-168.09 153.97L-162.99 145.418L-157.88 136.866H-137.47L-127.26 153.97L-137.47 171.075H-157.88L-162.99 162.523ZM-162.99 197.699L-168.09 189.147L-162.99 180.595L-157.88 172.042H-137.47L-127.26 189.147L-137.47 206.251H-157.88L-162.99 197.699ZM-162.99 232.885L-168.09 224.323L-162.99 215.771L-157.88 207.219H-137.47L-127.26 224.323L-137.47 241.437H-157.88L-162.99 232.885ZM-137.47 276.614H-157.88L-162.99 268.062L-168.09 259.509L-162.99 250.957L-157.88 242.405H-137.47L-127.26 259.509L-137.47 276.614ZM-126.39 259.026L-136.6 241.921L-126.39 224.807H-105.98L-95.77 241.921L-105.98 259.026H-126.39ZM-74.48 276.614H-94.9L-97.65 272.009L-105.11 259.509L-97.65 247.01L-94.9 242.405H-74.48L-64.28 259.509L-74.48 276.614ZM-63.41 259.026L-73.62 241.921L-63.41 224.807H-42.99L-35.5 237.364L-32.78 241.921L-35.54 246.526L-42.99 259.026H-63.41ZM-11.5 276.614H-31.92L-42.13 259.509L-31.92 242.405H-11.5L-1.28999 259.509L-11.5 276.614ZM-0.429993 259.026L-10.63 241.921L-0.429993 224.807H19.99L25.09 233.369L30.2 241.921L25.09 250.473L19.99 259.026H-0.429993ZM51.48 276.614H31.06L25.96 268.062L20.86 259.509L25.96 250.957L31.06 242.405H51.48L61.69 259.509L51.48 276.614ZM62.56 259.026L52.35 241.921L62.56 224.807H82.97L93.18 241.921L82.97 259.026H62.56ZM114.46 276.614H94.05L91.3 272.009L83.84 259.509L91.3 247.01L94.05 242.405H114.46L124.67 259.509L114.46 276.614ZM125.54 259.026L115.33 241.921L125.54 224.807H145.95L148.67 229.364L156.16 241.921L148.7 254.411L145.95 259.026H125.54ZM177.44 276.614H157.03L150.22 265.208L146.82 259.509L157.03 242.405H177.44L187.65 259.509L177.44 276.614ZM188.52 259.026L178.31 241.921L188.52 224.807H208.94L219.14 241.921L208.94 259.026H188.52ZM240.43 276.614H220.01L209.8 259.509L220.01 242.405H240.43L250.64 259.509L240.43 276.614ZM251.5 259.026L241.29 241.921L251.5 224.807H271.92L282.13 241.921L271.92 259.026H251.5ZM303.41 276.614H282.99L280.24 272.009L272.79 259.509L280.24 247.01L282.99 242.405H303.41L313.62 259.509L303.41 276.614ZM314.48 259.026L304.28 241.921L314.48 224.807H334.9L337.62 229.364L345.11 241.921L337.65 254.411L334.9 259.026H314.48ZM366.39 276.614H345.98L339.17 265.208L335.77 259.509L345.98 242.405H366.39L376.6 259.509L366.39 276.614ZM402.99 233.369L408.09 241.921L402.99 250.473L397.88 259.026H377.47L367.26 241.921L377.47 224.807H397.88L402.99 233.369ZM402.99 198.183L408.09 206.735L402.99 215.287L397.88 223.84H377.47L367.26 206.735L377.47 189.631H397.88L402.99 198.183ZM402.99 163.006L408.09 171.559L402.99 180.111L397.88 188.663H377.47L367.26 171.559L377.47 154.454H397.88L402.99 163.006ZM402.99 127.82L408.09 136.382L402.99 144.935L397.88 153.487H377.47L367.26 136.382L377.47 119.268H397.88L402.99 127.82ZM402.99 92.644L408.09 101.196L402.99 109.748L397.88 118.301H377.47L367.26 101.196L377.47 84.0918H397.88L402.99 92.644ZM402.99 57.4676L408.09 66.0198L402.99 74.5721L397.88 83.1243H377.47L367.26 66.0198L377.47 48.9154H397.88L402.99 57.4676ZM402.99 22.2815L408.09 30.8338L402.99 39.3957L397.88 47.9479H377.47L367.26 30.8338L377.47 13.7293H397.88L402.99 22.2815ZM402.99 -12.8948L408.09 -4.34261L402.99 4.20963L397.88 12.7619H377.47L367.26 -4.34261L377.47 -21.4471H397.88L402.99 -12.8948ZM402.99 -48.0712L408.09 -39.519L402.99 -30.9668L397.88 -22.4145H377.47L367.26 -39.519L377.47 -56.6235H397.88L402.99 -48.0712ZM402.99 -83.2573L408.09 -74.7051L402.99 -66.1528L397.88 -57.5909H377.47L367.26 -74.7051L377.47 -91.8095H397.88L402.99 -83.2573Z" fill="url(#paint1_linear_132_182)"/>
<path d="M1608.96 -109.398H1620V-109.881H1608.09L1602.99 -101.329L1597.88 -92.777H1577.47L1567.26 -109.881H1545.11L1537.65 -97.382L1534.9 -92.777H1514.48L1504.28 -109.881H1482.13L1471.92 -92.777H1451.5L1441.29 -109.881H1419.14L1408.94 -92.777H1388.52L1378.31 -109.881H1356.16L1348.7 -97.382L1345.95 -92.777H1325.54L1315.33 -109.881H1293.18L1282.97 -92.777H1262.56L1252.35 -109.881H1230.2L1225.09 -101.329L1219.99 -92.777H1199.57L1189.37 -109.881H1167.22L1164.46 -105.276L1157.01 -92.777H1136.59L1126.38 -109.881H1104.23L1094.02 -92.777H1073.61L1063.4 -109.881H1041.25L1036.15 -101.329L1031.04 -92.777H1020V-91.8095H1031.04L1036.15 -83.2573L1041.25 -74.7051L1036.15 -66.1528L1031.04 -57.5909H1020V-56.6235H1031.04L1036.15 -48.0712L1041.25 -39.519L1036.15 -30.9668L1031.04 -22.4145H1020V-21.4471H1031.04L1036.15 -12.8948L1041.25 -4.34261L1036.15 4.20963L1031.04 12.7619H1020V13.7293H1031.04L1036.15 22.2815L1041.25 30.8338L1036.15 39.3957L1031.04 47.9479H1020V48.9154H1031.04L1036.15 57.4676L1041.25 66.0198L1036.15 74.5721L1031.04 83.1243H1020V84.0918H1031.04L1036.15 92.644L1041.25 101.196L1036.15 109.748L1031.04 118.301H1020V119.268H1031.04L1036.15 127.82L1041.25 136.382L1036.15 144.935L1031.04 153.487H1020V154.454H1031.04L1036.15 163.006L1041.25 171.559L1036.15 180.111L1031.04 188.663H1020V189.631H1031.04L1036.15 198.183L1041.25 206.735L1036.15 215.287L1031.04 223.84H1020V224.807H1031.04L1036.15 233.369L1041.25 241.921L1036.15 250.473L1031.04 259.026H1020V259.993H1031.04L1036.15 268.545L1041.25 277.098H1063.4L1073.61 259.993H1094.02L1100.83 271.399L1104.23 277.098H1126.38L1136.59 259.993H1157.01L1164.46 272.492L1167.22 277.098H1189.37L1199.57 259.993H1219.99L1225.09 268.545L1230.2 277.098H1252.35L1262.56 259.993H1282.97L1289.78 271.399L1293.18 277.098H1315.33L1325.54 259.993H1345.95L1348.7 264.598L1356.16 277.098H1378.31L1388.52 259.993H1408.94L1419.14 277.098H1441.29L1451.5 259.993H1471.92L1478.72 271.399L1482.13 277.098H1504.28L1514.48 259.993H1534.9L1537.65 264.598L1545.11 277.098H1567.26L1577.47 259.993H1597.88L1602.99 268.545L1608.09 277.098H1620V276.614H1608.96L1603.85 268.062L1598.75 259.509L1603.85 250.957L1608.96 242.405H1620V241.437H1608.96L1603.85 232.885L1598.75 224.323L1603.85 215.771L1608.96 207.219H1620V206.251H1608.96L1603.85 197.699L1598.75 189.147L1603.85 180.595L1608.96 172.042H1620V171.075H1608.96L1603.85 162.523L1598.75 153.97L1603.85 145.418L1608.96 136.866H1620V135.899H1608.96L1603.85 127.337L1598.75 118.784L1603.85 110.232L1608.96 101.68H1620V100.712H1608.96L1603.85 92.1603L1598.75 83.608L1603.85 75.0558L1608.96 66.5036H1620V65.5361H1608.96L1603.85 56.9839L1598.75 48.4316L1603.85 39.8794L1608.96 31.3175H1620V30.3501H1608.96L1603.85 21.7978L1598.75 13.2456L1603.85 4.69335L1608.96 -3.85889H1620V-4.82634H1608.96L1603.85 -13.3786L1598.75 -21.9308L1603.85 -30.483L1608.96 -39.0353H1620V-40.0027H1608.96L1603.85 -48.555L1598.75 -57.1072L1603.85 -65.6691L1608.96 -74.2213H1620V-75.1888H1608.96L1603.85 -83.741L1598.75 -92.2932L1603.85 -100.845L1608.96 -109.398ZM1545.98 -109.398H1566.39L1576.6 -92.2932L1566.39 -75.1888H1545.98L1535.77 -92.2932L1545.98 -109.398ZM1420.01 65.5361L1409.8 48.4316L1420.01 31.3175H1440.43L1450.64 48.4316L1440.43 65.5361H1420.01ZM1450.64 83.608L1440.43 100.712H1420.01L1409.8 83.608L1420.01 66.5036H1440.43L1450.64 83.608ZM1419.14 66.0198L1408.94 83.1243H1388.52L1378.31 66.0198L1388.52 48.9154H1408.94L1419.14 66.0198ZM1387.65 83.608L1377.44 100.712H1357.03L1350.22 89.3063L1346.82 83.608L1357.03 66.5036H1377.44L1387.65 83.608ZM1377.44 65.5361H1357.03L1346.82 48.4316L1357.03 31.3175H1377.44L1387.65 48.4316L1377.44 65.5361ZM1348.69 53.4914L1356.16 66.0198L1348.7 78.5193L1345.95 83.1243H1325.54L1315.33 66.0198L1325.54 48.9154H1345.95L1348.69 53.4914ZM1324.67 83.608L1314.46 100.712H1294.05L1291.3 96.1075L1283.84 83.608L1291.3 71.1086L1294.05 66.5036H1314.46L1324.67 83.608ZM1314.46 65.5361H1294.05L1291.31 60.9504L1283.84 48.4316L1291.3 35.9322L1294.05 31.3175H1314.46L1324.67 48.4316L1314.46 65.5361ZM1293.18 66.0198L1282.97 83.1243H1262.56L1252.35 66.0198L1262.56 48.9154H1282.97L1293.18 66.0198ZM1261.69 83.608L1251.48 100.712H1231.06L1225.96 92.1603L1220.86 83.608L1225.96 75.0558L1231.06 66.5036H1251.48L1261.69 83.608ZM1251.48 65.5361H1231.06L1225.96 56.9839L1220.86 48.4316L1225.96 39.8794L1231.06 31.3175H1251.48L1261.69 48.4316L1251.48 65.5361ZM1225.09 57.4676L1230.2 66.0198L1225.09 74.5721L1219.99 83.1243H1199.57L1189.37 66.0198L1199.57 48.9154H1219.99L1225.09 57.4676ZM1188.5 65.5361H1168.08L1157.87 48.4316L1168.08 31.3175H1188.5L1198.71 48.4316L1188.5 65.5361ZM1188.5 66.5036L1198.71 83.608L1188.5 100.712H1168.08L1157.87 83.608L1168.08 66.5036H1188.5ZM1188.5 101.68L1198.71 118.784L1188.5 135.899H1168.08L1157.87 118.784L1168.08 101.68H1188.5ZM1189.37 101.196L1199.57 84.0918H1219.99L1225.09 92.644L1230.2 101.196L1225.09 109.748L1219.99 118.301H1199.57L1189.37 101.196ZM1225.96 110.232L1231.06 101.68H1251.48L1261.69 118.784L1251.48 135.899H1231.06L1225.96 127.337L1220.86 118.784L1225.96 110.232ZM1252.35 101.196L1262.56 84.0918H1282.97L1289.78 95.498L1293.18 101.196L1282.97 118.301H1262.56L1252.35 101.196ZM1291.3 106.295L1294.05 101.68H1314.46L1324.67 118.784L1314.46 135.899H1294.05L1291.33 131.342L1283.84 118.784L1291.3 106.295ZM1315.33 101.196L1325.54 84.0918H1345.95L1348.7 88.6968L1356.16 101.196L1348.7 113.696L1345.95 118.301H1325.54L1315.33 101.196ZM1357.03 101.68H1377.44L1387.65 118.784L1377.44 135.899H1357.03L1346.82 118.784L1357.03 101.68ZM1378.31 101.196L1388.52 84.0918H1408.94L1419.14 101.196L1408.94 118.301H1388.52L1378.31 101.196ZM1420.01 101.68H1440.43L1450.64 118.784L1440.43 135.899H1420.01L1409.8 118.784L1420.01 101.68ZM1441.29 101.196L1451.5 84.0918H1471.92L1478.72 95.498L1482.13 101.196L1471.92 118.301H1451.5L1441.29 101.196ZM1451.5 83.1243L1441.29 66.0198L1451.5 48.9154H1471.92L1482.13 66.0198L1471.92 83.1243H1451.5ZM1451.5 47.9479L1441.29 30.8435L1451.5 13.7293H1471.92L1478.72 25.1355L1482.13 30.8338L1471.92 47.9479H1451.5ZM1440.43 30.3501H1420.01L1409.8 13.2456L1420.01 -3.85889H1440.43L1450.64 13.2456L1440.43 30.3501ZM1419.14 30.8338L1408.94 47.9479H1388.52L1378.31 30.8338L1388.52 13.7293H1408.94L1419.14 30.8338ZM1377.44 30.3501H1357.03L1350.22 18.9535L1346.82 13.2456L1357.03 -3.85889H1377.44L1387.65 13.2456L1377.44 30.3501ZM1348.7 18.344L1356.16 30.8338L1348.7 43.3332L1345.95 47.9479H1325.54L1315.33 30.8338L1325.54 13.7293H1345.95L1348.7 18.344ZM1314.46 30.3501H1294.05L1291.3 25.745L1283.84 13.2456L1291.31 0.726814L1294.05 -3.85889H1314.46L1324.67 13.2456L1314.46 30.3501ZM1289.78 25.1355L1293.18 30.8338L1282.97 47.9479H1262.56L1252.35 30.8435L1262.56 13.7293H1282.97L1289.78 25.1355ZM1251.48 30.3501H1231.06L1225.96 21.7978L1220.86 13.2456L1225.96 4.69335L1231.06 -3.85889H1251.48L1261.69 13.2456L1251.48 30.3501ZM1225.09 22.2815L1230.2 30.8338L1225.09 39.3957L1219.99 47.9479H1199.57L1189.37 30.8338L1199.57 13.7293H1219.99L1225.09 22.2815ZM1188.5 30.3501H1168.08L1157.87 13.2456L1168.08 -3.85889H1188.5L1198.71 13.2456L1188.5 30.3501ZM1164.46 26.2287L1167.22 30.8338L1164.46 35.4485L1157.01 47.9479H1136.59L1126.38 30.8338L1136.59 13.7293H1157.01L1164.46 26.2287ZM1157.01 48.9154L1164.48 61.4341L1167.22 66.0198L1164.46 70.6249L1157.01 83.1243H1136.59L1126.38 66.0198L1136.59 48.9154H1157.01ZM1157.01 84.0918L1164.46 96.5912L1167.22 101.196L1164.46 105.811L1157.01 118.301H1136.59L1126.38 101.196L1136.59 84.0918H1157.01ZM1157.01 119.268L1164.5 131.826L1167.22 136.382L1164.46 140.987L1157.01 153.487H1136.59L1126.38 136.382L1136.59 119.268H1157.01ZM1168.08 136.866H1188.5L1198.71 153.97L1188.5 171.075H1168.08L1157.87 153.97L1168.08 136.866ZM1189.37 136.382L1199.57 119.268H1219.99L1225.09 127.82L1230.2 136.382L1225.09 144.935L1219.99 153.487H1199.57L1189.37 136.382ZM1225.96 145.418L1231.06 136.866H1251.48L1261.69 153.97L1251.48 171.075H1231.06L1225.96 162.523L1220.86 153.97L1225.96 145.418ZM1252.35 136.382L1262.56 119.268H1282.97L1293.18 136.382L1282.97 153.487H1262.56L1252.35 136.382ZM1291.3 141.471L1294.05 136.866H1314.46L1324.67 153.97L1314.46 171.075H1294.05L1291.3 166.47L1283.84 153.97L1291.3 141.471ZM1315.33 136.382L1325.54 119.268H1345.95L1348.67 123.825L1356.16 136.382L1348.7 148.872L1345.95 153.487H1325.54L1315.33 136.382ZM1357.03 136.866H1377.44L1387.65 153.97L1377.44 171.075H1357.03L1350.22 159.669L1346.82 153.97L1357.03 136.866ZM1378.31 136.382L1388.52 119.268H1408.94L1419.14 136.382L1408.94 153.487H1388.52L1378.31 136.382ZM1420.01 136.866H1440.43L1450.64 153.97L1440.43 171.075H1420.01L1409.8 153.97L1420.01 136.866ZM1441.29 136.382L1451.5 119.268H1471.92L1482.13 136.382L1471.92 153.487H1451.5L1441.29 136.382ZM1480.24 141.471L1482.99 136.866H1503.41L1513.62 153.97L1503.41 171.075H1482.99L1480.24 166.47L1472.79 153.97L1480.24 141.471ZM1482.99 135.899L1480.28 131.342L1472.79 118.784L1480.24 106.295L1482.99 101.68H1503.41L1513.62 118.784L1503.41 135.899H1482.99ZM1482.99 100.712L1480.24 96.1075L1472.79 83.608L1480.24 71.1086L1482.99 66.5036H1503.41L1513.62 83.608L1503.41 100.712H1482.99ZM1482.99 65.5361L1480.26 60.9504L1472.79 48.4316L1480.24 35.9322L1482.99 31.3175H1503.41L1513.62 48.4316L1503.41 65.5361H1482.99ZM1482.99 30.3501L1480.24 25.745L1472.79 13.2456L1480.26 0.726814L1482.99 -3.85889H1503.41L1513.62 13.2456L1503.41 30.3501H1482.99ZM1482.99 -4.82634L1480.24 -9.43138L1472.79 -21.9308L1480.26 -34.4592L1482.99 -39.0353H1503.41L1513.62 -21.9308L1503.41 -4.82634H1482.99ZM1478.72 -10.0409L1482.13 -4.34261L1471.92 12.7619H1451.5L1441.29 -4.34261L1451.5 -21.4471H1471.92L1478.72 -10.0409ZM1440.43 -4.82634H1420.01L1409.8 -21.9308L1420.01 -39.0353H1440.43L1450.64 -21.9308L1440.43 -4.82634ZM1419.14 -4.34261L1408.94 12.7619H1388.52L1378.31 -4.34261L1388.52 -21.4471H1408.94L1419.14 -4.34261ZM1377.44 -4.82634H1357.03L1350.22 -16.2325L1346.82 -21.9308L1357.03 -39.0353H1377.44L1387.65 -21.9308L1377.44 -4.82634ZM1348.7 -16.842L1356.16 -4.34261L1348.69 8.18584L1345.95 12.7619H1325.54L1315.33 -4.34261L1325.54 -21.4471H1345.95L1348.7 -16.842ZM1314.46 -4.82634H1294.05L1291.3 -9.43138L1283.84 -21.9308L1291.31 -34.4592L1294.05 -39.0353H1314.46L1324.67 -21.9308L1314.46 -4.82634ZM1289.78 -10.0409L1293.18 -4.34261L1282.97 12.7619H1262.56L1252.35 -4.34261L1262.56 -21.4471H1282.97L1289.78 -10.0409ZM1251.48 -4.82634H1231.06L1225.96 -13.3786L1220.86 -21.9308L1225.96 -30.483L1231.06 -39.0353H1251.48L1261.69 -21.9308L1251.48 -4.82634ZM1225.09 -12.8948L1230.2 -4.34261L1225.09 4.20963L1219.99 12.7619H1199.57L1189.37 -4.34261L1199.57 -21.4471H1219.99L1225.09 -12.8948ZM1188.5 -4.82634H1168.08L1157.87 -21.9308L1168.08 -39.0353H1188.5L1198.71 -21.9308L1188.5 -4.82634ZM1164.46 -8.94765L1167.22 -4.34261L1164.48 0.243095L1157.01 12.7619H1136.59L1126.38 -4.34261L1136.59 -21.4471H1157.01L1164.46 -8.94765ZM1125.52 -4.82634H1105.1L1102.35 -9.43138L1094.89 -21.9308L1102.37 -34.4592L1105.1 -39.0353H1125.52L1135.72 -21.9308L1125.52 -4.82634ZM1125.52 -3.85889L1135.72 13.2456L1125.52 30.3501H1105.1L1102.35 25.745L1094.89 13.2456L1102.37 0.726814L1105.1 -3.85889H1125.52ZM1125.52 31.3175L1135.72 48.4316L1125.52 65.5361H1105.1L1102.37 60.9504L1094.89 48.4316L1102.35 35.9322L1105.1 31.3175H1125.52ZM1125.52 66.5036L1135.72 83.608L1125.52 100.712H1105.1L1102.35 96.1075L1094.89 83.608L1102.35 71.1086L1105.1 66.5036H1125.52ZM1125.52 101.68L1135.72 118.784L1125.52 135.899H1105.1L1102.38 131.342L1094.89 118.784L1102.35 106.295L1105.1 101.68H1125.52ZM1125.52 136.866L1135.72 153.97L1125.52 171.075H1105.1L1102.35 166.47L1094.89 153.97L1102.35 141.471L1105.1 136.866H1125.52ZM1125.52 172.042L1135.72 189.147L1125.52 206.251H1105.1L1102.35 201.646L1094.89 189.147L1102.35 176.647L1105.1 172.042H1125.52ZM1126.38 171.559L1136.59 154.454H1157.01L1164.46 166.954L1167.22 171.559L1164.46 176.164L1157.01 188.663H1136.59L1126.38 171.559ZM1168.08 172.042H1188.5L1198.71 189.147L1188.5 206.251H1168.08L1157.87 189.147L1168.08 172.042ZM1189.37 171.559L1199.57 154.454H1219.99L1225.09 163.006L1230.2 171.559L1225.09 180.111L1219.99 188.663H1199.57L1189.37 171.559ZM1225.96 180.595L1231.06 172.042H1251.48L1261.69 189.147L1251.48 206.251H1231.06L1225.96 197.699L1220.86 189.147L1225.96 180.595ZM1252.35 171.559L1262.56 154.454H1282.97L1289.78 165.86L1293.18 171.559L1282.97 188.663H1262.56L1252.35 171.559ZM1291.3 176.647L1294.05 172.042H1314.46L1324.67 189.147L1314.46 206.251H1294.05L1291.3 201.646L1283.84 189.147L1291.3 176.647ZM1315.33 171.559L1325.54 154.454H1345.95L1348.7 159.059L1356.16 171.559L1348.7 184.058L1345.95 188.663H1325.54L1315.33 171.559ZM1357.03 172.042H1377.44L1387.65 189.147L1377.44 206.251H1357.03L1350.22 194.845L1346.82 189.147L1357.03 172.042ZM1378.31 171.559L1388.52 154.454H1408.94L1419.14 171.559L1408.94 188.663H1388.52L1378.31 171.559ZM1420.01 172.042H1440.43L1450.64 189.147L1440.43 206.251H1420.01L1409.8 189.147L1420.01 172.042ZM1441.29 171.559L1451.5 154.454H1471.92L1478.72 165.86L1482.13 171.559L1471.92 188.663H1451.5L1441.29 171.559ZM1480.24 176.647L1482.99 172.042H1503.41L1513.62 189.147L1503.41 206.251H1482.99L1480.24 201.646L1472.79 189.147L1480.24 176.647ZM1504.28 171.559L1514.48 154.454H1534.9L1537.65 159.059L1545.11 171.559L1537.65 184.058L1534.9 188.663H1514.48L1504.28 171.559ZM1514.48 153.487L1504.28 136.382L1514.48 119.268H1534.9L1537.62 123.825L1545.11 136.382L1537.65 148.872L1534.9 153.487H1514.48ZM1514.48 118.301L1504.28 101.196L1514.48 84.0918H1534.9L1537.65 88.6968L1545.11 101.196L1537.65 113.696L1534.9 118.301H1514.48ZM1514.48 83.1243L1504.28 66.0198L1514.48 48.9154H1534.9L1537.63 53.4914L1545.11 66.0198L1537.65 78.5193L1534.9 83.1243H1514.48ZM1514.48 47.9479L1504.28 30.8338L1514.48 13.7293H1534.9L1537.65 18.344L1545.11 30.8338L1537.65 43.3332L1534.9 47.9479H1514.48ZM1514.48 12.7619L1504.28 -4.34261L1514.48 -21.4471H1534.9L1537.65 -16.842L1545.11 -4.34261L1537.63 8.18584L1534.9 12.7619H1514.48ZM1514.48 -22.4145L1504.28 -39.519L1514.48 -56.6235H1534.9L1537.65 -52.0184L1545.11 -39.519L1537.63 -27.0002L1534.9 -22.4145H1514.48ZM1503.41 -40.0027H1482.99L1480.24 -44.6174L1472.79 -57.1072L1480.24 -69.6066L1482.99 -74.2213H1503.41L1513.62 -57.1072L1503.41 -40.0027ZM1478.72 -45.2269L1482.13 -39.519L1471.92 -22.4145H1451.5L1441.29 -39.519L1451.5 -56.6235H1471.92L1478.72 -45.2269ZM1440.43 -40.0027H1420.01L1409.8 -57.1072L1420.01 -74.2213H1440.43L1450.64 -57.1072L1440.43 -40.0027ZM1419.14 -39.519L1408.94 -22.4145H1388.52L1378.31 -39.519L1388.52 -56.6235H1408.94L1419.14 -39.519ZM1377.44 -40.0027H1357.03L1350.22 -51.4089L1346.82 -57.1072L1357.03 -74.2213H1377.44L1387.65 -57.1169L1377.44 -40.0027ZM1348.7 -52.0184L1356.16 -39.519L1348.69 -27.0002L1345.95 -22.4145H1325.54L1315.33 -39.519L1325.54 -56.6235H1345.95L1348.7 -52.0184ZM1314.46 -40.0027H1294.05L1291.3 -44.6174L1283.84 -57.1072L1291.3 -69.6066L1294.05 -74.2213H1314.46L1324.67 -57.1072L1314.46 -40.0027ZM1289.78 -45.2269L1293.18 -39.519L1282.97 -22.4145H1262.56L1252.35 -39.519L1262.56 -56.6235H1282.97L1289.78 -45.2269ZM1251.48 -40.0027H1231.06L1225.96 -48.555L1220.86 -57.1072L1225.96 -65.6691L1231.06 -74.2213H1251.48L1261.69 -57.1072L1251.48 -40.0027ZM1225.09 -48.0712L1230.2 -39.519L1225.09 -30.9668L1219.99 -22.4145H1199.57L1189.37 -39.519L1199.57 -56.6235H1219.99L1225.09 -48.0712ZM1188.5 -40.0027H1168.08L1157.87 -57.1072L1168.08 -74.2213H1188.5L1198.71 -57.1072L1188.5 -40.0027ZM1164.46 -44.1337L1167.22 -39.519L1164.48 -34.943L1157.01 -22.4145H1136.59L1126.38 -39.519L1136.59 -56.6235H1157.01L1164.46 -44.1337ZM1125.52 -40.0027H1105.1L1102.35 -44.6174L1094.89 -57.1072L1102.35 -69.6066L1105.1 -74.2213H1125.52L1135.72 -57.1072L1125.52 -40.0027ZM1100.83 -45.2269L1104.23 -39.519L1094.02 -22.4145H1073.61L1063.4 -39.519L1073.61 -56.6235H1094.02L1100.83 -45.2269ZM1094.02 -21.4471L1100.83 -10.0409L1104.23 -4.34261L1094.02 12.7619H1073.61L1063.4 -4.34261L1073.61 -21.4471H1094.02ZM1094.02 13.7293L1100.83 25.1355L1104.23 30.8338L1094.02 47.9479H1073.61L1063.4 30.8338L1073.61 13.7293H1094.02ZM1094.02 48.9154L1104.23 66.0198L1094.02 83.1243H1073.61L1063.4 66.0198L1073.61 48.9154H1094.02ZM1094.02 84.0918L1100.83 95.498L1104.23 101.196L1094.02 118.301H1073.61L1063.4 101.196L1073.61 84.0918H1094.02ZM1094.02 119.268L1104.23 136.382L1094.02 153.487H1073.61L1063.4 136.382L1073.61 119.268H1094.02ZM1094.02 154.454L1100.83 165.86L1104.23 171.559L1094.02 188.663H1073.61L1063.4 171.559L1073.61 154.454H1094.02ZM1094.02 189.631L1100.83 201.037L1104.23 206.735L1094.02 223.84H1073.61L1063.4 206.735L1073.61 189.631H1094.02ZM1102.35 211.833L1105.1 207.219H1125.52L1135.72 224.323L1125.52 241.437H1105.1L1102.38 236.881L1094.89 224.323L1102.35 211.833ZM1126.38 206.735L1136.59 189.631H1157.01L1164.46 202.13L1167.22 206.735L1164.46 211.35L1157.01 223.84H1136.59L1126.38 206.735ZM1168.08 207.219H1188.5L1198.71 224.323L1188.5 241.437H1168.08L1157.87 224.323L1168.08 207.219ZM1189.37 206.735L1199.57 189.631H1219.99L1225.09 198.183L1230.2 206.735L1225.09 215.287L1219.99 223.84H1199.57L1189.37 206.735ZM1225.96 215.771L1231.06 207.219H1251.48L1261.69 224.323L1251.48 241.437H1231.06L1225.96 232.885L1220.86 224.323L1225.96 215.771ZM1252.35 206.735L1262.56 189.631H1282.97L1289.78 201.037L1293.18 206.735L1282.97 223.84H1262.56L1252.35 206.735ZM1291.3 211.833L1294.05 207.219H1314.46L1324.67 224.323L1314.46 241.437H1294.05L1291.33 236.881L1283.84 224.323L1291.3 211.833ZM1315.33 206.735L1325.54 189.631H1345.95L1348.7 194.236L1356.16 206.735L1348.7 219.234L1345.95 223.84H1325.54L1315.33 206.735ZM1357.03 207.219H1377.44L1387.65 224.323L1377.44 241.437H1357.03L1346.82 224.323L1357.03 207.219ZM1378.31 206.735L1388.52 189.631H1408.94L1419.14 206.735L1408.94 223.84H1388.52L1378.31 206.735ZM1420.01 207.219H1440.43L1450.64 224.323L1440.43 241.437H1420.01L1409.8 224.323L1420.01 207.219ZM1441.29 206.735L1451.5 189.631H1471.92L1478.72 201.037L1482.13 206.735L1471.92 223.84H1451.5L1441.29 206.735ZM1480.24 211.833L1482.99 207.219H1503.41L1513.62 224.323L1503.41 241.437H1482.99L1480.28 236.881L1472.79 224.323L1480.24 211.833ZM1504.28 206.735L1514.48 189.631H1534.9L1537.65 194.236L1545.11 206.735L1537.65 219.234L1534.9 223.84H1514.48L1504.28 206.735ZM1545.98 207.219H1566.39L1576.6 224.323L1566.39 241.437H1545.98L1535.77 224.323L1545.98 207.219ZM1545.98 206.251L1539.17 194.845L1535.77 189.147L1545.98 172.042H1566.39L1576.6 189.147L1566.39 206.251H1545.98ZM1545.98 171.075L1539.17 159.669L1535.77 153.97L1545.98 136.866H1566.39L1576.6 153.97L1566.39 171.075H1545.98ZM1545.98 135.899L1535.77 118.784L1545.98 101.68H1566.39L1576.6 118.784L1566.39 135.899H1545.98ZM1545.98 100.712L1539.17 89.3063L1535.77 83.608L1545.98 66.5036H1566.39L1576.6 83.608L1566.39 100.712H1545.98ZM1545.98 65.5361L1535.77 48.4316L1545.98 31.3175H1566.39L1576.6 48.4316L1566.39 65.5361H1545.98ZM1545.98 30.3501L1539.17 18.9535L1535.77 13.2456L1545.98 -3.85889H1566.39L1576.6 13.2456L1566.39 30.3501H1545.98ZM1545.98 -4.82634L1539.17 -16.2325L1535.77 -21.9308L1545.98 -39.0353H1566.39L1576.6 -21.9308L1566.39 -4.82634H1545.98ZM1545.98 -40.0027L1539.17 -51.4089L1535.77 -57.1072L1545.98 -74.2213H1566.39L1576.6 -57.1072L1566.39 -40.0027H1545.98ZM1534.9 -91.8095L1537.63 -87.2238L1545.11 -74.7051L1537.65 -62.2056L1534.9 -57.5909H1514.48L1504.28 -74.7051L1514.48 -91.8095H1534.9ZM1480.24 -104.793L1482.99 -109.398H1503.41L1513.62 -92.2932L1503.41 -75.1888H1482.99L1480.26 -79.7648L1472.79 -92.2932L1480.24 -104.793ZM1471.92 -91.8095L1482.13 -74.7051L1471.92 -57.5909H1451.5L1441.29 -74.7051L1451.5 -91.8095H1471.92ZM1420.01 -109.398H1440.43L1450.64 -92.2932L1440.43 -75.1888H1420.01L1409.8 -92.2932L1420.01 -109.398ZM1408.94 -91.8095L1419.14 -74.7051L1408.94 -57.5909H1388.52L1378.31 -74.7051L1388.52 -91.8095H1408.94ZM1357.03 -109.398H1377.44L1387.65 -92.2932L1377.44 -75.1888H1357.03L1346.82 -92.2932L1357.03 -109.398ZM1345.95 -91.8095L1348.69 -87.2238L1356.16 -74.7051L1348.7 -62.2056L1345.95 -57.5909H1325.54L1315.33 -74.7051L1325.54 -91.8095H1345.95ZM1291.3 -104.793L1294.05 -109.398H1314.46L1324.67 -92.2932L1314.46 -75.1888H1294.05L1291.31 -79.7648L1283.84 -92.2932L1291.3 -104.793ZM1282.97 -91.8095L1293.18 -74.7051L1282.97 -57.5909H1262.56L1252.35 -74.7051L1262.56 -91.8095H1282.97ZM1225.96 -100.845L1231.06 -109.398H1251.48L1261.69 -92.2932L1251.48 -75.1888H1231.06L1225.96 -83.741L1220.86 -92.2932L1225.96 -100.845ZM1219.99 -91.8095L1225.09 -83.2573L1230.2 -74.7051L1225.09 -66.1528L1219.99 -57.5909H1199.57L1189.37 -74.7051L1199.57 -91.8095H1219.99ZM1168.08 -109.398H1188.5L1198.71 -92.2932L1188.5 -75.1888H1168.08L1157.87 -92.2932L1168.08 -109.398ZM1157.01 -91.8095L1164.48 -79.2811L1167.22 -74.7051L1164.46 -70.0903L1157.01 -57.5909H1136.59L1126.38 -74.7051L1136.59 -91.8095H1157.01ZM1102.35 -104.793L1105.1 -109.398H1125.52L1135.72 -92.2932L1125.52 -75.1888H1105.1L1102.37 -79.7648L1094.89 -92.2932L1102.35 -104.793ZM1094.02 -91.8095L1104.23 -74.7051L1094.02 -57.5909H1073.61L1063.4 -74.7051L1073.61 -91.8095H1094.02ZM1037.01 -83.741L1031.91 -92.2932L1037.01 -100.845L1042.12 -109.398H1062.53L1072.74 -92.2932L1062.53 -75.1888H1042.12L1037.01 -83.741ZM1037.01 -48.555L1031.91 -57.1072L1037.01 -65.6691L1042.12 -74.2213H1062.53L1072.74 -57.1072L1062.53 -40.0027H1042.12L1037.01 -48.555ZM1037.01 -13.3786L1031.91 -21.9308L1037.01 -30.483L1042.12 -39.0353H1062.53L1072.74 -21.9308L1062.53 -4.82634H1042.12L1037.01 -13.3786ZM1037.01 21.7978L1031.91 13.2456L1037.01 4.69335L1042.12 -3.85889H1062.53L1072.74 13.2456L1062.53 30.3501H1042.12L1037.01 21.7978ZM1037.01 56.9839L1031.91 48.4316L1037.01 39.8794L1042.12 31.3175H1062.53L1072.74 48.4316L1062.53 65.5361H1042.12L1037.01 56.9839ZM1037.01 92.1603L1031.91 83.608L1037.01 75.0558L1042.12 66.5036H1062.53L1072.74 83.608L1062.53 100.712H1042.12L1037.01 92.1603ZM1037.01 127.337L1031.91 118.784L1037.01 110.232L1042.12 101.68H1062.53L1072.74 118.784L1062.53 135.899H1042.12L1037.01 127.337ZM1037.01 162.523L1031.91 153.97L1037.01 145.418L1042.12 136.866H1062.53L1072.74 153.97L1062.53 171.075H1042.12L1037.01 162.523ZM1037.01 197.699L1031.91 189.147L1037.01 180.595L1042.12 172.042H1062.53L1072.74 189.147L1062.53 206.251H1042.12L1037.01 197.699ZM1037.01 232.885L1031.91 224.323L1037.01 215.771L1042.12 207.219H1062.53L1072.74 224.323L1062.53 241.437H1042.12L1037.01 232.885ZM1062.53 276.614H1042.12L1037.01 268.062L1031.91 259.509L1037.01 250.957L1042.12 242.405H1062.53L1072.74 259.509L1062.53 276.614ZM1073.61 259.026L1063.4 241.921L1073.61 224.807H1094.02L1104.23 241.921L1094.02 259.026H1073.61ZM1125.52 276.614H1105.1L1102.35 272.009L1094.89 259.509L1102.35 247.01L1105.1 242.405H1125.52L1135.72 259.509L1125.52 276.614ZM1136.59 259.026L1126.38 241.921L1136.59 224.807H1157.01L1164.5 237.364L1167.22 241.921L1164.46 246.526L1157.01 259.026H1136.59ZM1188.5 276.614H1168.08L1157.87 259.509L1168.08 242.405H1188.5L1198.71 259.509L1188.5 276.614ZM1199.57 259.026L1189.37 241.921L1199.57 224.807H1219.99L1225.09 233.369L1230.2 241.921L1225.09 250.473L1219.99 259.026H1199.57ZM1251.48 276.614H1231.06L1225.96 268.062L1220.86 259.509L1225.96 250.957L1231.06 242.405H1251.48L1261.69 259.509L1251.48 276.614ZM1262.56 259.026L1252.35 241.921L1262.56 224.807H1282.97L1293.18 241.921L1282.97 259.026H1262.56ZM1314.46 276.614H1294.05L1291.3 272.009L1283.84 259.509L1291.3 247.01L1294.05 242.405H1314.46L1324.67 259.509L1314.46 276.614ZM1325.54 259.026L1315.33 241.921L1325.54 224.807H1345.95L1348.67 229.364L1356.16 241.921L1348.7 254.411L1345.95 259.026H1325.54ZM1377.44 276.614H1357.03L1350.22 265.208L1346.82 259.509L1357.03 242.405H1377.44L1387.65 259.509L1377.44 276.614ZM1388.52 259.026L1378.31 241.921L1388.52 224.807H1408.94L1419.14 241.921L1408.94 259.026H1388.52ZM1440.43 276.614H1420.01L1409.8 259.509L1420.01 242.405H1440.43L1450.64 259.509L1440.43 276.614ZM1451.5 259.026L1441.29 241.921L1451.5 224.807H1471.92L1482.13 241.921L1471.92 259.026H1451.5ZM1503.41 276.614H1482.99L1480.24 272.009L1472.79 259.509L1480.24 247.01L1482.99 242.405H1503.41L1513.62 259.509L1503.41 276.614ZM1514.48 259.026L1504.28 241.921L1514.48 224.807H1534.9L1537.62 229.364L1545.11 241.921L1537.65 254.411L1534.9 259.026H1514.48ZM1566.39 276.614H1545.98L1539.17 265.208L1535.77 259.509L1545.98 242.405H1566.39L1576.6 259.509L1566.39 276.614ZM1602.99 233.369L1608.09 241.921L1602.99 250.473L1597.88 259.026H1577.47L1567.26 241.921L1577.47 224.807H1597.88L1602.99 233.369ZM1602.99 198.183L1608.09 206.735L1602.99 215.287L1597.88 223.84H1577.47L1567.26 206.735L1577.47 189.631H1597.88L1602.99 198.183ZM1602.99 163.006L1608.09 171.559L1602.99 180.111L1597.88 188.663H1577.47L1567.26 171.559L1577.47 154.454H1597.88L1602.99 163.006ZM1602.99 127.82L1608.09 136.382L1602.99 144.935L1597.88 153.487H1577.47L1567.26 136.382L1577.47 119.268H1597.88L1602.99 127.82ZM1602.99 92.644L1608.09 101.196L1602.99 109.748L1597.88 118.301H1577.47L1567.26 101.196L1577.47 84.0918H1597.88L1602.99 92.644ZM1602.99 57.4676L1608.09 66.0198L1602.99 74.5721L1597.88 83.1243H1577.47L1567.26 66.0198L1577.47 48.9154H1597.88L1602.99 57.4676ZM1602.99 22.2815L1608.09 30.8338L1602.99 39.3957L1597.88 47.9479H1577.47L1567.26 30.8338L1577.47 13.7293H1597.88L1602.99 22.2815ZM1602.99 -12.8948L1608.09 -4.34261L1602.99 4.20963L1597.88 12.7619H1577.47L1567.26 -4.34261L1577.47 -21.4471H1597.88L1602.99 -12.8948ZM1602.99 -48.0712L1608.09 -39.519L1602.99 -30.9668L1597.88 -22.4145H1577.47L1567.26 -39.519L1577.47 -56.6235H1597.88L1602.99 -48.0712ZM1602.99 -83.2573L1608.09 -74.7051L1602.99 -66.1528L1597.88 -57.5909H1577.47L1567.26 -74.7051L1577.47 -91.8095H1597.88L1602.99 -83.2573Z" fill="url(#paint2_linear_132_182)"/>
<path d="M1008.96 -126.983H1020V-127.467H1008.09L1002.99 -118.914L997.88 -110.362H977.47L967.26 -127.467H945.11L937.65 -114.967L934.9 -110.362H914.48L904.28 -127.467H882.13L871.92 -110.362H851.5L841.29 -127.467H819.14L808.94 -110.362H788.52L778.31 -127.467H756.16L748.7 -114.967L745.95 -110.362H725.54L715.33 -127.467H693.18L682.97 -110.362H662.56L652.35 -127.467H630.2L625.09 -118.914L619.99 -110.362H599.57L589.37 -127.467H567.22L564.46 -122.861L557.01 -110.362H536.59L526.38 -127.467H504.23L494.02 -110.362H473.61L463.4 -127.467H441.25L436.15 -118.914L431.04 -110.362H420V-109.395H431.04L436.15 -100.842L441.25 -92.2901L436.15 -83.7379L431.04 -75.176H420V-74.2085H431.04L436.15 -65.6563L441.25 -57.1041L436.15 -48.5518L431.04 -39.9996H420V-39.0322H431.04L436.15 -30.4799L441.25 -21.9277L436.15 -13.3755L431.04 -4.82323H420V-3.85578H431.04L436.15 4.69646L441.25 13.2487L436.15 21.8106L431.04 30.3628H420V31.3303H431.04L436.15 39.8825L441.25 48.4348L436.15 56.987L431.04 65.5392H420V66.5067H431.04L436.15 75.0589L441.25 83.6111L436.15 92.1634L431.04 100.716H420V101.683H431.04L436.15 110.235L441.25 118.797L436.15 127.349L431.04 135.902H420V136.869H431.04L436.15 145.421L441.25 153.974L436.15 162.526L431.04 171.078H420V172.046H431.04L436.15 180.598L441.25 189.15L436.15 197.702L431.04 206.254H420V207.222H431.04L436.15 215.784L441.25 224.336L436.15 232.888L431.04 241.44H420V242.408H431.04L436.15 250.96L441.25 259.512H463.4L473.61 242.408H494.02L500.83 253.814L504.23 259.512H526.38L536.59 242.408H557.01L564.46 254.907L567.22 259.512H589.37L599.57 242.408H619.99L625.09 250.96L630.2 259.512H652.35L662.56 242.408H682.97L689.78 253.814L693.18 259.512H715.33L725.54 242.408H745.95L748.7 247.013L756.16 259.512H778.31L788.52 242.408H808.94L819.14 259.512H841.29L851.5 242.408H871.92L878.72 253.814L882.13 259.512H904.28L914.48 242.408H934.9L937.65 247.013L945.11 259.512H967.26L977.47 242.408H997.88L1002.99 250.96L1008.09 259.512H1020V259.029H1008.96L1003.85 250.476L998.75 241.924L1003.85 233.372L1008.96 224.82H1020V223.852H1008.96L1003.85 215.3L998.75 206.738L1003.85 198.186L1008.96 189.634H1020V188.666H1008.96L1003.85 180.114L998.75 171.562L1003.85 163.01L1008.96 154.457H1020V153.49H1008.96L1003.85 144.938L998.75 136.385L1003.85 127.833L1008.96 119.281H1020V118.313H1008.96L1003.85 109.752L998.75 101.199L1003.85 92.6471L1008.96 84.0948H1020V83.1274H1008.96L1003.85 74.5752L998.75 66.0229L1003.85 57.4707L1008.96 48.9185H1020V47.951H1008.96L1003.85 39.3988L998.75 30.8466L1003.85 22.2943L1008.96 13.7324H1020V12.765H1008.96L1003.85 4.21274L998.75 -4.3395L1003.85 -12.8917L1008.96 -21.444H1020V-22.4114H1008.96L1003.85 -30.9637L998.75 -39.5159L1003.85 -48.0681L1008.96 -56.6204H1020V-57.5878H1008.96L1003.85 -66.14L998.75 -74.6923L1003.85 -83.2542L1008.96 -91.8064H1020V-92.7739H1008.96L1003.85 -101.326L998.75 -109.878L1003.85 -118.431L1008.96 -126.983ZM945.98 -126.983H966.39L976.6 -109.878L966.39 -92.7739H945.98L935.77 -109.878L945.98 -126.983ZM820.01 47.951L809.8 30.8466L820.01 13.7324H840.43L850.64 30.8466L840.43 47.951H820.01ZM850.64 66.0229L840.43 83.1274H820.01L809.8 66.0229L820.01 48.9185H840.43L850.64 66.0229ZM819.14 48.4348L808.94 65.5392H788.52L778.31 48.4348L788.52 31.3303H808.94L819.14 48.4348ZM787.65 66.0229L777.44 83.1274H757.03L750.22 71.7212L746.82 66.0229L757.03 48.9185H777.44L787.65 66.0229ZM777.44 47.951H757.03L746.82 30.8466L757.03 13.7324H777.44L787.65 30.8466L777.44 47.951ZM748.69 35.9063L756.16 48.4348L748.7 60.9342L745.95 65.5392H725.54L715.33 48.4348L725.54 31.3303H745.95L748.69 35.9063ZM724.67 66.0229L714.46 83.1274H694.05L691.3 78.5224L683.84 66.0229L691.3 53.5235L694.05 48.9185H714.46L724.67 66.0229ZM714.46 47.951H694.05L691.31 43.3653L683.84 30.8466L691.3 18.3471L694.05 13.7324H714.46L724.67 30.8466L714.46 47.951ZM693.18 48.4348L682.97 65.5392H662.56L652.35 48.4348L662.56 31.3303H682.97L693.18 48.4348ZM661.69 66.0229L651.48 83.1274H631.06L625.96 74.5752L620.86 66.0229L625.96 57.4707L631.06 48.9185H651.48L661.69 66.0229ZM651.48 47.951H631.06L625.96 39.3988L620.86 30.8466L625.96 22.2943L631.06 13.7324H651.48L661.69 30.8466L651.48 47.951ZM625.09 39.8825L630.2 48.4348L625.09 56.987L619.99 65.5392H599.57L589.37 48.4348L599.57 31.3303H619.99L625.09 39.8825ZM588.5 47.951H568.08L557.87 30.8466L568.08 13.7324H588.5L598.71 30.8466L588.5 47.951ZM588.5 48.9185L598.71 66.0229L588.5 83.1274H568.08L557.87 66.0229L568.08 48.9185H588.5ZM588.5 84.0948L598.71 101.199L588.5 118.313H568.08L557.87 101.199L568.08 84.0948H588.5ZM589.37 83.6111L599.57 66.5067H619.99L625.09 75.0589L630.2 83.6111L625.09 92.1634L619.99 100.716H599.57L589.37 83.6111ZM625.96 92.6471L631.06 84.0948H651.48L661.69 101.199L651.48 118.313H631.06L625.96 109.752L620.86 101.199L625.96 92.6471ZM652.35 83.6111L662.56 66.5067H682.97L689.78 77.9129L693.18 83.6111L682.97 100.716H662.56L652.35 83.6111ZM691.3 88.7096L694.05 84.0948H714.46L724.67 101.199L714.46 118.313H694.05L691.33 113.757L683.84 101.199L691.3 88.7096ZM715.33 83.6111L725.54 66.5067H745.95L748.7 71.1117L756.16 83.6111L748.7 96.1106L745.95 100.716H725.54L715.33 83.6111ZM757.03 84.0948H777.44L787.65 101.199L777.44 118.313H757.03L746.82 101.199L757.03 84.0948ZM778.31 83.6111L788.52 66.5067H808.94L819.14 83.6111L808.94 100.716H788.52L778.31 83.6111ZM820.01 84.0948H840.43L850.64 101.199L840.43 118.313H820.01L809.8 101.199L820.01 84.0948ZM841.29 83.6111L851.5 66.5067H871.92L878.72 77.9129L882.13 83.6111L871.92 100.716H851.5L841.29 83.6111ZM851.5 65.5392L841.29 48.4348L851.5 31.3303H871.92L882.13 48.4348L871.92 65.5392H851.5ZM851.5 30.3628L841.29 13.2584L851.5 -3.85578H871.92L878.72 7.55043L882.13 13.2487L871.92 30.3628H851.5ZM840.43 12.765H820.01L809.8 -4.3395L820.01 -21.444H840.43L850.64 -4.3395L840.43 12.765ZM819.14 13.2487L808.94 30.3628H788.52L778.31 13.2487L788.52 -3.85578H808.94L819.14 13.2487ZM777.44 12.765H757.03L750.22 1.36844L746.82 -4.3395L757.03 -21.444H777.44L787.65 -4.3395L777.44 12.765ZM748.7 0.758942L756.16 13.2487L748.7 25.7481L745.95 30.3628H725.54L715.33 13.2487L725.54 -3.85578H745.95L748.7 0.758942ZM714.46 12.765H694.05L691.3 8.15993L683.84 -4.3395L691.31 -16.8583L694.05 -21.444H714.46L724.67 -4.3395L714.46 12.765ZM689.78 7.55043L693.18 13.2487L682.97 30.3628H662.56L652.35 13.2584L662.56 -3.85578H682.97L689.78 7.55043ZM651.48 12.765H631.06L625.96 4.21274L620.86 -4.3395L625.96 -12.8917L631.06 -21.444H651.48L661.69 -4.3395L651.48 12.765ZM625.09 4.69646L630.2 13.2487L625.09 21.8106L619.99 30.3628H599.57L589.37 13.2487L599.57 -3.85578H619.99L625.09 4.69646ZM588.5 12.765H568.08L557.87 -4.3395L568.08 -21.444H588.5L598.71 -4.3395L588.5 12.765ZM564.46 8.64365L567.22 13.2487L564.46 17.8634L557.01 30.3628H536.59L526.38 13.2487L536.59 -3.85578H557.01L564.46 8.64365ZM557.01 31.3303L564.48 43.8491L567.22 48.4348L564.46 53.0398L557.01 65.5392H536.59L526.38 48.4348L536.59 31.3303H557.01ZM557.01 66.5067L564.46 79.0061L567.22 83.6111L564.46 88.2259L557.01 100.716H536.59L526.38 83.6111L536.59 66.5067H557.01ZM557.01 101.683L564.5 114.241L567.22 118.797L564.46 123.402L557.01 135.902H536.59L526.38 118.797L536.59 101.683H557.01ZM568.08 119.281H588.5L598.71 136.385L588.5 153.49H568.08L557.87 136.385L568.08 119.281ZM589.37 118.797L599.57 101.683H619.99L625.09 110.235L630.2 118.797L625.09 127.349L619.99 135.902H599.57L589.37 118.797ZM625.96 127.833L631.06 119.281H651.48L661.69 136.385L651.48 153.49H631.06L625.96 144.938L620.86 136.385L625.96 127.833ZM652.35 118.797L662.56 101.683H682.97L693.18 118.797L682.97 135.902H662.56L652.35 118.797ZM691.3 123.886L694.05 119.281H714.46L724.67 136.385L714.46 153.49H694.05L691.3 148.885L683.84 136.385L691.3 123.886ZM715.33 118.797L725.54 101.683H745.95L748.67 106.24L756.16 118.797L748.7 131.287L745.95 135.902H725.54L715.33 118.797ZM757.03 119.281H777.44L787.65 136.385L777.44 153.49H757.03L750.22 142.084L746.82 136.385L757.03 119.281ZM778.31 118.797L788.52 101.683H808.94L819.14 118.797L808.94 135.902H788.52L778.31 118.797ZM820.01 119.281H840.43L850.64 136.385L840.43 153.49H820.01L809.8 136.385L820.01 119.281ZM841.29 118.797L851.5 101.683H871.92L882.13 118.797L871.92 135.902H851.5L841.29 118.797ZM880.24 123.886L882.99 119.281H903.41L913.62 136.385L903.41 153.49H882.99L880.24 148.885L872.79 136.385L880.24 123.886ZM882.99 118.313L880.28 113.757L872.79 101.199L880.24 88.7096L882.99 84.0948H903.41L913.62 101.199L903.41 118.313H882.99ZM882.99 83.1274L880.24 78.5224L872.79 66.0229L880.24 53.5235L882.99 48.9185H903.41L913.62 66.0229L903.41 83.1274H882.99ZM882.99 47.951L880.26 43.3653L872.79 30.8466L880.24 18.3471L882.99 13.7324H903.41L913.62 30.8466L903.41 47.951H882.99ZM882.99 12.765L880.24 8.15993L872.79 -4.3395L880.26 -16.8583L882.99 -21.444H903.41L913.62 -4.3395L903.41 12.765H882.99ZM882.99 -22.4114L880.24 -27.0165L872.79 -39.5159L880.26 -52.0443L882.99 -56.6204H903.41L913.62 -39.5159L903.41 -22.4114H882.99ZM878.72 -27.626L882.13 -21.9277L871.92 -4.82323H851.5L841.29 -21.9277L851.5 -39.0322H871.92L878.72 -27.626ZM840.43 -22.4114H820.01L809.8 -39.5159L820.01 -56.6204H840.43L850.64 -39.5159L840.43 -22.4114ZM819.14 -21.9277L808.94 -4.82323H788.52L778.31 -21.9277L788.52 -39.0322H808.94L819.14 -21.9277ZM777.44 -22.4114H757.03L750.22 -33.8176L746.82 -39.5159L757.03 -56.6204H777.44L787.65 -39.5159L777.44 -22.4114ZM748.7 -34.4271L756.16 -21.9277L748.69 -9.39925L745.95 -4.82323H725.54L715.33 -21.9277L725.54 -39.0322H745.95L748.7 -34.4271ZM714.46 -22.4114H694.05L691.3 -27.0165L683.84 -39.5159L691.31 -52.0443L694.05 -56.6204H714.46L724.67 -39.5159L714.46 -22.4114ZM689.78 -27.626L693.18 -21.9277L682.97 -4.82323H662.56L652.35 -21.9277L662.56 -39.0322H682.97L689.78 -27.626ZM651.48 -22.4114H631.06L625.96 -30.9637L620.86 -39.5159L625.96 -48.0681L631.06 -56.6204H651.48L661.69 -39.5159L651.48 -22.4114ZM625.09 -30.4799L630.2 -21.9277L625.09 -13.3755L619.99 -4.82323H599.57L589.37 -21.9277L599.57 -39.0322H619.99L625.09 -30.4799ZM588.5 -22.4114H568.08L557.87 -39.5159L568.08 -56.6204H588.5L598.71 -39.5159L588.5 -22.4114ZM564.46 -26.5327L567.22 -21.9277L564.48 -17.342L557.01 -4.82323H536.59L526.38 -21.9277L536.59 -39.0322H557.01L564.46 -26.5327ZM525.52 -22.4114H505.1L502.35 -27.0165L494.89 -39.5159L502.37 -52.0443L505.1 -56.6204H525.52L535.72 -39.5159L525.52 -22.4114ZM525.52 -21.444L535.72 -4.3395L525.52 12.765H505.1L502.35 8.15993L494.89 -4.3395L502.37 -16.8583L505.1 -21.444H525.52ZM525.52 13.7324L535.72 30.8466L525.52 47.951H505.1L502.37 43.3653L494.89 30.8466L502.35 18.3471L505.1 13.7324H525.52ZM525.52 48.9185L535.72 66.0229L525.52 83.1274H505.1L502.35 78.5224L494.89 66.0229L502.35 53.5235L505.1 48.9185H525.52ZM525.52 84.0948L535.72 101.199L525.52 118.313H505.1L502.38 113.757L494.89 101.199L502.35 88.7096L505.1 84.0948H525.52ZM525.52 119.281L535.72 136.385L525.52 153.49H505.1L502.35 148.885L494.89 136.385L502.35 123.886L505.1 119.281H525.52ZM525.52 154.457L535.72 171.562L525.52 188.666H505.1L502.35 184.061L494.89 171.562L502.35 159.062L505.1 154.457H525.52ZM526.38 153.974L536.59 136.869H557.01L564.46 149.369L567.22 153.974L564.46 158.579L557.01 171.078H536.59L526.38 153.974ZM568.08 154.457H588.5L598.71 171.562L588.5 188.666H568.08L557.87 171.562L568.08 154.457ZM589.37 153.974L599.57 136.869H619.99L625.09 145.421L630.2 153.974L625.09 162.526L619.99 171.078H599.57L589.37 153.974ZM625.96 163.01L631.06 154.457H651.48L661.69 171.562L651.48 188.666H631.06L625.96 180.114L620.86 171.562L625.96 163.01ZM652.35 153.974L662.56 136.869H682.97L689.78 148.275L693.18 153.974L682.97 171.078H662.56L652.35 153.974ZM691.3 159.062L694.05 154.457H714.46L724.67 171.562L714.46 188.666H694.05L691.3 184.061L683.84 171.562L691.3 159.062ZM715.33 153.974L725.54 136.869H745.95L748.7 141.474L756.16 153.974L748.7 166.473L745.95 171.078H725.54L715.33 153.974ZM757.03 154.457H777.44L787.65 171.562L777.44 188.666H757.03L750.22 177.26L746.82 171.562L757.03 154.457ZM778.31 153.974L788.52 136.869H808.94L819.14 153.974L808.94 171.078H788.52L778.31 153.974ZM820.01 154.457H840.43L850.64 171.562L840.43 188.666H820.01L809.8 171.562L820.01 154.457ZM841.29 153.974L851.5 136.869H871.92L878.72 148.275L882.13 153.974L871.92 171.078H851.5L841.29 153.974ZM880.24 159.062L882.99 154.457H903.41L913.62 171.562L903.41 188.666H882.99L880.24 184.061L872.79 171.562L880.24 159.062ZM904.28 153.974L914.48 136.869H934.9L937.65 141.474L945.11 153.974L937.65 166.473L934.9 171.078H914.48L904.28 153.974ZM914.48 135.902L904.28 118.797L914.48 101.683H934.9L937.62 106.24L945.11 118.797L937.65 131.287L934.9 135.902H914.48ZM914.48 100.716L904.28 83.6111L914.48 66.5067H934.9L937.65 71.1117L945.11 83.6111L937.65 96.1106L934.9 100.716H914.48ZM914.48 65.5392L904.28 48.4348L914.48 31.3303H934.9L937.63 35.9063L945.11 48.4348L937.65 60.9342L934.9 65.5392H914.48ZM914.48 30.3628L904.28 13.2487L914.48 -3.85578H934.9L937.65 0.758942L945.11 13.2487L937.65 25.7481L934.9 30.3628H914.48ZM914.48 -4.82323L904.28 -21.9277L914.48 -39.0322H934.9L937.65 -34.4271L945.11 -21.9277L937.63 -9.39925L934.9 -4.82323H914.48ZM914.48 -39.9996L904.28 -57.1041L914.48 -74.2085H934.9L937.65 -69.6035L945.11 -57.1041L937.63 -44.5853L934.9 -39.9996H914.48ZM903.41 -57.5878H882.99L880.24 -62.2025L872.79 -74.6923L880.24 -87.1917L882.99 -91.8064H903.41L913.62 -74.6923L903.41 -57.5878ZM878.72 -62.812L882.13 -57.1041L871.92 -39.9996H851.5L841.29 -57.1041L851.5 -74.2085H871.92L878.72 -62.812ZM840.43 -57.5878H820.01L809.8 -74.6923L820.01 -91.8064H840.43L850.64 -74.6923L840.43 -57.5878ZM819.14 -57.1041L808.94 -39.9996H788.52L778.31 -57.1041L788.52 -74.2085H808.94L819.14 -57.1041ZM777.44 -57.5878H757.03L750.22 -68.994L746.82 -74.6923L757.03 -91.8064H777.44L787.65 -74.7019L777.44 -57.5878ZM748.7 -69.6035L756.16 -57.1041L748.69 -44.5853L745.95 -39.9996H725.54L715.33 -57.1041L725.54 -74.2085H745.95L748.7 -69.6035ZM714.46 -57.5878H694.05L691.3 -62.2025L683.84 -74.6923L691.3 -87.1917L694.05 -91.8064H714.46L724.67 -74.6923L714.46 -57.5878ZM689.78 -62.812L693.18 -57.1041L682.97 -39.9996H662.56L652.35 -57.1041L662.56 -74.2085H682.97L689.78 -62.812ZM651.48 -57.5878H631.06L625.96 -66.14L620.86 -74.6923L625.96 -83.2542L631.06 -91.8064H651.48L661.69 -74.6923L651.48 -57.5878ZM625.09 -65.6563L630.2 -57.1041L625.09 -48.5518L619.99 -39.9996H599.57L589.37 -57.1041L599.57 -74.2085H619.99L625.09 -65.6563ZM588.5 -57.5878H568.08L557.87 -74.6923L568.08 -91.8064H588.5L598.71 -74.6923L588.5 -57.5878ZM564.46 -61.7188L567.22 -57.1041L564.48 -52.5281L557.01 -39.9996H536.59L526.38 -57.1041L536.59 -74.2085H557.01L564.46 -61.7188ZM525.52 -57.5878H505.1L502.35 -62.2025L494.89 -74.6923L502.35 -87.1917L505.1 -91.8064H525.52L535.72 -74.6923L525.52 -57.5878ZM500.83 -62.812L504.23 -57.1041L494.02 -39.9996H473.61L463.4 -57.1041L473.61 -74.2085H494.02L500.83 -62.812ZM494.02 -39.0322L500.83 -27.626L504.23 -21.9277L494.02 -4.82323H473.61L463.4 -21.9277L473.61 -39.0322H494.02ZM494.02 -3.85578L500.83 7.55043L504.23 13.2487L494.02 30.3628H473.61L463.4 13.2487L473.61 -3.85578H494.02ZM494.02 31.3303L504.23 48.4348L494.02 65.5392H473.61L463.4 48.4348L473.61 31.3303H494.02ZM494.02 66.5067L500.83 77.9129L504.23 83.6111L494.02 100.716H473.61L463.4 83.6111L473.61 66.5067H494.02ZM494.02 101.683L504.23 118.797L494.02 135.902H473.61L463.4 118.797L473.61 101.683H494.02ZM494.02 136.869L500.83 148.275L504.23 153.974L494.02 171.078H473.61L463.4 153.974L473.61 136.869H494.02ZM494.02 172.046L500.83 183.452L504.23 189.15L494.02 206.254H473.61L463.4 189.15L473.61 172.046H494.02ZM502.35 194.248L505.1 189.634H525.52L535.72 206.738L525.52 223.852H505.1L502.38 219.296L494.89 206.738L502.35 194.248ZM526.38 189.15L536.59 172.046H557.01L564.46 184.545L567.22 189.15L564.46 193.765L557.01 206.254H536.59L526.38 189.15ZM568.08 189.634H588.5L598.71 206.738L588.5 223.852H568.08L557.87 206.738L568.08 189.634ZM589.37 189.15L599.57 172.046H619.99L625.09 180.598L630.2 189.15L625.09 197.702L619.99 206.254H599.57L589.37 189.15ZM625.96 198.186L631.06 189.634H651.48L661.69 206.738L651.48 223.852H631.06L625.96 215.3L620.86 206.738L625.96 198.186ZM652.35 189.15L662.56 172.046H682.97L689.78 183.452L693.18 189.15L682.97 206.254H662.56L652.35 189.15ZM691.3 194.248L694.05 189.634H714.46L724.67 206.738L714.46 223.852H694.05L691.33 219.296L683.84 206.738L691.3 194.248ZM715.33 189.15L725.54 172.046H745.95L748.7 176.651L756.16 189.15L748.7 201.649L745.95 206.254H725.54L715.33 189.15ZM757.03 189.634H777.44L787.65 206.738L777.44 223.852H757.03L746.82 206.738L757.03 189.634ZM778.31 189.15L788.52 172.046H808.94L819.14 189.15L808.94 206.254H788.52L778.31 189.15ZM820.01 189.634H840.43L850.64 206.738L840.43 223.852H820.01L809.8 206.738L820.01 189.634ZM841.29 189.15L851.5 172.046H871.92L878.72 183.452L882.13 189.15L871.92 206.254H851.5L841.29 189.15ZM880.24 194.248L882.99 189.634H903.41L913.62 206.738L903.41 223.852H882.99L880.28 219.296L872.79 206.738L880.24 194.248ZM904.28 189.15L914.48 172.046H934.9L937.65 176.651L945.11 189.15L937.65 201.649L934.9 206.254H914.48L904.28 189.15ZM945.98 189.634H966.39L976.6 206.738L966.39 223.852H945.98L935.77 206.738L945.98 189.634ZM945.98 188.666L939.17 177.26L935.77 171.562L945.98 154.457H966.39L976.6 171.562L966.39 188.666H945.98ZM945.98 153.49L939.17 142.084L935.77 136.385L945.98 119.281H966.39L976.6 136.385L966.39 153.49H945.98ZM945.98 118.313L935.77 101.199L945.98 84.0948H966.39L976.6 101.199L966.39 118.313H945.98ZM945.98 83.1274L939.17 71.7212L935.77 66.0229L945.98 48.9185H966.39L976.6 66.0229L966.39 83.1274H945.98ZM945.98 47.951L935.77 30.8466L945.98 13.7324H966.39L976.6 30.8466L966.39 47.951H945.98ZM945.98 12.765L939.17 1.36844L935.77 -4.3395L945.98 -21.444H966.39L976.6 -4.3395L966.39 12.765H945.98ZM945.98 -22.4114L939.17 -33.8176L935.77 -39.5159L945.98 -56.6204H966.39L976.6 -39.5159L966.39 -22.4114H945.98ZM945.98 -57.5878L939.17 -68.994L935.77 -74.6923L945.98 -91.8064H966.39L976.6 -74.6923L966.39 -57.5878H945.98ZM934.9 -109.395L937.63 -104.809L945.11 -92.2901L937.65 -79.7907L934.9 -75.176H914.48L904.28 -92.2901L914.48 -109.395H934.9ZM880.24 -122.378L882.99 -126.983H903.41L913.62 -109.878L903.41 -92.7739H882.99L880.26 -97.3499L872.79 -109.878L880.24 -122.378ZM871.92 -109.395L882.13 -92.2901L871.92 -75.176H851.5L841.29 -92.2901L851.5 -109.395H871.92ZM820.01 -126.983H840.43L850.64 -109.878L840.43 -92.7739H820.01L809.8 -109.878L820.01 -126.983ZM808.94 -109.395L819.14 -92.2901L808.94 -75.176H788.52L778.31 -92.2901L788.52 -109.395H808.94ZM757.03 -126.983H777.44L787.65 -109.878L777.44 -92.7739H757.03L746.82 -109.878L757.03 -126.983ZM745.95 -109.395L748.69 -104.809L756.16 -92.2901L748.7 -79.7907L745.95 -75.176H725.54L715.33 -92.2901L725.54 -109.395H745.95ZM691.3 -122.378L694.05 -126.983H714.46L724.67 -109.878L714.46 -92.7739H694.05L691.31 -97.3499L683.84 -109.878L691.3 -122.378ZM682.97 -109.395L693.18 -92.2901L682.97 -75.176H662.56L652.35 -92.2901L662.56 -109.395H682.97ZM625.96 -118.431L631.06 -126.983H651.48L661.69 -109.878L651.48 -92.7739H631.06L625.96 -101.326L620.86 -109.878L625.96 -118.431ZM619.99 -109.395L625.09 -100.842L630.2 -92.2901L625.09 -83.7379L619.99 -75.176H599.57L589.37 -92.2901L599.57 -109.395H619.99ZM568.08 -126.983H588.5L598.71 -109.878L588.5 -92.7739H568.08L557.87 -109.878L568.08 -126.983ZM557.01 -109.395L564.48 -96.8662L567.22 -92.2901L564.46 -87.6754L557.01 -75.176H536.59L526.38 -92.2901L536.59 -109.395H557.01ZM502.35 -122.378L505.1 -126.983H525.52L535.72 -109.878L525.52 -92.7739H505.1L502.37 -97.3499L494.89 -109.878L502.35 -122.378ZM494.02 -109.395L504.23 -92.2901L494.02 -75.176H473.61L463.4 -92.2901L473.61 -109.395H494.02ZM437.01 -101.326L431.91 -109.878L437.01 -118.431L442.12 -126.983H462.53L472.74 -109.878L462.53 -92.7739H442.12L437.01 -101.326ZM437.01 -66.14L431.91 -74.6923L437.01 -83.2542L442.12 -91.8064H462.53L472.74 -74.6923L462.53 -57.5878H442.12L437.01 -66.14ZM437.01 -30.9637L431.91 -39.5159L437.01 -48.0681L442.12 -56.6204H462.53L472.74 -39.5159L462.53 -22.4114H442.12L437.01 -30.9637ZM437.01 4.21274L431.91 -4.3395L437.01 -12.8917L442.12 -21.444H462.53L472.74 -4.3395L462.53 12.765H442.12L437.01 4.21274ZM437.01 39.3988L431.91 30.8466L437.01 22.2943L442.12 13.7324H462.53L472.74 30.8466L462.53 47.951H442.12L437.01 39.3988ZM437.01 74.5752L431.91 66.0229L437.01 57.4707L442.12 48.9185H462.53L472.74 66.0229L462.53 83.1274H442.12L437.01 74.5752ZM437.01 109.752L431.91 101.199L437.01 92.6471L442.12 84.0948H462.53L472.74 101.199L462.53 118.313H442.12L437.01 109.752ZM437.01 144.938L431.91 136.385L437.01 127.833L442.12 119.281H462.53L472.74 136.385L462.53 153.49H442.12L437.01 144.938ZM437.01 180.114L431.91 171.562L437.01 163.01L442.12 154.457H462.53L472.74 171.562L462.53 188.666H442.12L437.01 180.114ZM437.01 215.3L431.91 206.738L437.01 198.186L442.12 189.634H462.53L472.74 206.738L462.53 223.852H442.12L437.01 215.3ZM462.53 259.029H442.12L437.01 250.476L431.91 241.924L437.01 233.372L442.12 224.82H462.53L472.74 241.924L462.53 259.029ZM473.61 241.44L463.4 224.336L473.61 207.222H494.02L504.23 224.336L494.02 241.44H473.61ZM525.52 259.029H505.1L502.35 254.424L494.89 241.924L502.35 229.425L505.1 224.82H525.52L535.72 241.924L525.52 259.029ZM536.59 241.44L526.38 224.336L536.59 207.222H557.01L564.5 219.779L567.22 224.336L564.46 228.941L557.01 241.44H536.59ZM588.5 259.029H568.08L557.87 241.924L568.08 224.82H588.5L598.71 241.924L588.5 259.029ZM599.57 241.44L589.37 224.336L599.57 207.222H619.99L625.09 215.784L630.2 224.336L625.09 232.888L619.99 241.44H599.57ZM651.48 259.029H631.06L625.96 250.476L620.86 241.924L625.96 233.372L631.06 224.82H651.48L661.69 241.924L651.48 259.029ZM662.56 241.44L652.35 224.336L662.56 207.222H682.97L693.18 224.336L682.97 241.44H662.56ZM714.46 259.029H694.05L691.3 254.424L683.84 241.924L691.3 229.425L694.05 224.82H714.46L724.67 241.924L714.46 259.029ZM725.54 241.44L715.33 224.336L725.54 207.222H745.95L748.67 211.779L756.16 224.336L748.7 236.826L745.95 241.44H725.54ZM777.44 259.029H757.03L750.22 247.622L746.82 241.924L757.03 224.82H777.44L787.65 241.924L777.44 259.029ZM788.52 241.44L778.31 224.336L788.52 207.222H808.94L819.14 224.336L808.94 241.44H788.52ZM840.43 259.029H820.01L809.8 241.924L820.01 224.82H840.43L850.64 241.924L840.43 259.029ZM851.5 241.44L841.29 224.336L851.5 207.222H871.92L882.13 224.336L871.92 241.44H851.5ZM903.41 259.029H882.99L880.24 254.424L872.79 241.924L880.24 229.425L882.99 224.82H903.41L913.62 241.924L903.41 259.029ZM914.48 241.44L904.28 224.336L914.48 207.222H934.9L937.62 211.779L945.11 224.336L937.65 236.826L934.9 241.44H914.48ZM966.39 259.029H945.98L939.17 247.622L935.77 241.924L945.98 224.82H966.39L976.6 241.924L966.39 259.029ZM1002.99 215.784L1008.09 224.336L1002.99 232.888L997.88 241.44H977.47L967.26 224.336L977.47 207.222H997.88L1002.99 215.784ZM1002.99 180.598L1008.09 189.15L1002.99 197.702L997.88 206.254H977.47L967.26 189.15L977.47 172.046H997.88L1002.99 180.598ZM1002.99 145.421L1008.09 153.974L1002.99 162.526L997.88 171.078H977.47L967.26 153.974L977.47 136.869H997.88L1002.99 145.421ZM1002.99 110.235L1008.09 118.797L1002.99 127.349L997.88 135.902H977.47L967.26 118.797L977.47 101.683H997.88L1002.99 110.235ZM1002.99 75.0589L1008.09 83.6111L1002.99 92.1634L997.88 100.716H977.47L967.26 83.6111L977.47 66.5067H997.88L1002.99 75.0589ZM1002.99 39.8825L1008.09 48.4348L1002.99 56.987L997.88 65.5392H977.47L967.26 48.4348L977.47 31.3303H997.88L1002.99 39.8825ZM1002.99 4.69646L1008.09 13.2487L1002.99 21.8106L997.88 30.3628H977.47L967.26 13.2487L977.47 -3.85578H997.88L1002.99 4.69646ZM1002.99 -30.4799L1008.09 -21.9277L1002.99 -13.3755L997.88 -4.82323H977.47L967.26 -21.9277L977.47 -39.0322H997.88L1002.99 -30.4799ZM1002.99 -65.6563L1008.09 -57.1041L1002.99 -48.5518L997.88 -39.9996H977.47L967.26 -57.1041L977.47 -74.2085H997.88L1002.99 -65.6563ZM1002.99 -100.842L1008.09 -92.2901L1002.99 -83.7379L997.88 -75.176H977.47L967.26 -92.2901L977.47 -109.395H997.88L1002.99 -100.842Z" fill="url(#paint3_linear_132_182)"/>
</g>
<defs>
<linearGradient id="paint0_linear_132_182" x1="725" y1="50.0788" x2="720" y2="266.079" gradientUnits="userSpaceOnUse">
<stop stop-color="#D9D9D9" stop-opacity="0.3"/>
<stop offset="1" stop-color="#D9D9D9" stop-opacity="0"/>
</linearGradient>
<linearGradient id="paint1_linear_132_182" x1="120" y1="-106.738" x2="120" y2="271.495" gradientUnits="userSpaceOnUse">
<stop stop-color="#E0D8BF"/>
<stop offset="1" stop-color="#D7B979"/>
</linearGradient>
<linearGradient id="paint2_linear_132_182" x1="1320" y1="-106.738" x2="1320" y2="271.495" gradientUnits="userSpaceOnUse">
<stop stop-color="#E0D8BF"/>
<stop offset="1" stop-color="#D7B979"/>
</linearGradient>
<linearGradient id="paint3_linear_132_182" x1="720" y1="-124.323" x2="720" y2="253.91" gradientUnits="userSpaceOnUse">
<stop stop-color="#E0D8BF"/>
<stop offset="1" stop-color="#D7B979"/>
</linearGradient>
</defs>
</svg>
